<svg width="13" height="34" viewBox="0 0 13 34" fill="none" xmlns="http://www.w3.org/2000/svg">
<path d="M11.9885 4.42399C12.2285 4.85599 12.3845 5.27599 12.4565 5.68399C12.5285 6.06799 12.5645 6.73999 12.5645 7.69999C12.5645 8.65999 12.1685 11.852 11.3765 17.276C10.5845 22.7 10.1885 26.504 10.1885 28.688C10.1885 30.848 10.3565 32.324 10.6925 33.116C9.20451 32.588 8.14851 31.88 7.52451 30.992C6.92451 30.08 6.62451 29.024 6.62451 27.824C6.62451 26.6 6.87651 24.128 7.38051 20.408C8.26851 14.24 8.71251 9.46399 8.71251 6.07999C8.71251 5.35999 8.66451 4.37599 8.56851 3.12799C10.3925 3.22399 11.5325 3.65599 11.9885 4.42399Z" fill="#D91111"/>
<path d="M5.98851 1.42399C6.22851 1.85599 6.38451 2.27599 6.45651 2.68399C6.52851 3.06799 6.56451 3.73999 6.56451 4.69999C6.56451 5.65999 6.16851 8.85199 5.37651 14.276C4.58451 19.7 4.18851 23.504 4.18851 25.688C4.18851 27.848 4.35651 29.324 4.69251 30.116C3.20451 29.588 2.14851 28.88 1.52451 27.992C0.924512 27.08 0.624512 26.024 0.624512 24.824C0.624512 23.6 0.876512 21.128 1.38051 17.408C2.26851 11.24 2.71251 6.46399 2.71251 3.07999C2.71251 2.35999 2.66451 1.37599 2.56851 0.127991C4.39251 0.223991 5.53251 0.655991 5.98851 1.42399Z" fill="#094A1B"/>
</svg>
