<svg width="721" height="1061" viewBox="0 0 721 1061" fill="none" xmlns="http://www.w3.org/2000/svg">
<g style="mix-blend-mode:hard-light" opacity="0.3" clip-path="url(#clip0_74_21070)">
<mask id="mask0_74_21070" style="mask-type:alpha" maskUnits="userSpaceOnUse" x="-51" y="130" width="413" height="770">
<path d="M38.1872 687.823C74.3635 731.269 110.533 774.727 146.709 818.173C184.447 863.504 237.156 913.739 293.504 896.319C326.791 886.027 349.207 853.312 357.11 819.376C365.002 785.443 360.908 750.004 356.776 715.411C343.573 604.919 330.359 494.431 317.153 383.928C309.323 318.387 300.346 249.795 262.122 195.975C223.901 142.165 146.29 110.148 89.7672 144.237C58.4662 163.116 40.1723 197.354 25.2532 230.722C-9.74994 309.004 -36.6776 393.615 -48.5598 478.729C-61.2069 569.344 -19.1074 618.997 38.1872 687.823Z" fill="#B49180"/>
</mask>
<g mask="url(#mask0_74_21070)">
<path d="M240.171 923.074C221.214 938.003 215.23 963.377 223.923 984.679L229.807 980.045C223.41 962.038 228.769 941.154 244.595 928.692C260.42 916.229 281.98 915.905 297.985 926.356L303.869 921.723C285.193 908.282 259.129 908.146 240.171 923.074Z" fill="#F76457"/>
<path d="M395.318 800.898C376.361 815.827 370.382 841.196 379.069 862.503L384.954 857.869C378.557 839.862 383.916 818.978 399.742 806.516C415.567 794.053 437.127 793.729 453.131 804.18L459.015 799.547C440.339 786.106 414.275 785.97 395.318 800.898Z" fill="#F76457"/>
<path d="M204.391 877.638C194.106 885.738 192.321 900.703 200.425 910.994L202.952 909.005C195.946 900.107 197.479 887.166 206.376 880.159C215.274 873.153 228.214 874.697 235.22 883.594L237.747 881.604C229.637 871.317 214.676 869.539 204.391 877.638Z" fill="#F76457"/>
<path d="M210.744 885.705C204.907 890.301 203.898 898.794 208.494 904.631L209.923 903.505C205.944 898.451 206.816 891.114 211.87 887.135C216.923 883.155 224.26 884.027 228.24 889.081L229.67 887.955C225.073 882.119 216.581 881.109 210.744 885.705Z" fill="#F76457"/>
<path d="M196.255 867.305C180.269 879.894 177.5 903.139 190.093 919.131L194.008 916.048C183.12 902.222 185.505 882.113 199.337 871.22C213.164 860.332 233.267 862.722 244.159 876.554L248.074 873.471C235.481 857.48 212.24 854.717 196.255 867.305Z" fill="#F76457"/>
<path d="M183.095 924.632C167.476 904.786 170.911 875.943 190.746 860.323C210.587 844.698 239.431 848.133 255.051 867.968L255.081 867.944C254.888 867.712 254.694 867.49 254.507 867.253L260.095 862.852C241.915 840.535 209.012 836.828 186.312 854.704C163.612 872.58 159.507 905.43 176.934 928.341L182.557 923.912C182.744 924.15 182.908 924.395 183.095 924.632Z" fill="#F76457"/>
<path d="M359.538 755.462C349.252 763.562 347.468 778.527 355.572 788.818L358.099 786.828C351.092 777.931 352.625 764.99 361.523 757.983C370.42 750.977 383.36 752.521 390.367 761.418L392.894 759.428C384.783 749.141 369.823 747.363 359.538 755.462Z" fill="#F76457"/>
<path d="M365.891 763.529C360.054 768.125 359.044 776.618 363.641 782.455L365.07 781.329C361.09 776.275 361.963 768.938 367.016 764.959C372.07 760.979 379.407 761.851 383.387 766.905L384.816 765.779C380.22 759.942 371.727 758.933 365.891 763.529Z" fill="#F76457"/>
<path d="M351.401 745.129C335.416 757.718 332.647 780.963 345.24 796.955L349.155 793.872C338.266 780.046 340.652 759.937 354.484 749.044C368.311 738.156 388.419 740.541 399.312 754.374L403.227 751.291C390.634 735.299 367.387 732.541 351.401 745.129Z" fill="#F76457"/>
<path d="M338.247 802.452C322.628 782.606 326.063 753.762 345.898 738.142C365.739 722.517 394.583 725.952 410.203 745.787L410.233 745.764C410.04 745.531 409.846 745.309 409.659 745.072L415.253 740.667C397.073 718.35 364.17 714.643 341.47 732.519C318.77 750.395 314.666 783.245 332.092 806.155L337.703 801.737C337.89 801.974 338.066 802.21 338.247 802.452Z" fill="#F76457"/>
<path d="M310.807 853.15C321.092 845.051 322.871 830.09 314.766 819.799L312.245 821.784C319.252 830.682 317.719 843.623 308.821 850.629C299.924 857.636 286.978 856.097 279.972 847.2L277.451 849.185C285.55 859.47 300.515 861.255 310.807 853.15Z" fill="#F76457"/>
<path d="M304.449 845.078C310.285 840.482 311.295 831.989 306.699 826.152L305.269 827.278C309.249 832.332 308.377 839.669 303.323 843.649C298.269 847.628 290.932 846.756 286.952 841.702L285.523 842.828C290.119 848.665 298.606 849.679 304.449 845.078Z" fill="#F76457"/>
<path d="M315.86 859.569C302.034 870.457 281.925 868.072 271.032 854.24L267.118 857.322C279.706 873.308 302.952 876.077 318.943 863.484C334.929 850.895 337.698 827.65 325.105 811.658L321.19 814.741C332.072 828.572 329.687 848.681 315.86 859.569Z" fill="#F76457"/>
<path d="M255.087 867.94C273.266 890.257 306.169 893.965 328.869 876.089C351.57 858.212 355.668 825.367 338.248 802.452C338.067 802.21 337.896 801.97 337.709 801.732L332.098 806.151L332.086 806.16C347.711 826.002 344.276 854.845 324.447 870.461C304.606 886.085 275.762 882.651 260.142 862.816L260.112 862.839L254.525 867.239C254.7 867.486 254.894 867.708 255.087 867.94Z" fill="#F76457"/>
<path d="M150.543 809.259C140.258 817.358 138.473 832.323 146.568 842.603L149.095 840.613C142.093 831.722 143.626 818.78 152.523 811.774C161.421 804.767 174.361 806.311 181.363 815.202L183.89 813.213C175.793 802.944 160.828 801.159 150.543 809.259Z" fill="#F76457"/>
<path d="M156.896 817.326C151.06 821.923 150.05 830.415 154.646 836.252L156.076 835.126C152.101 830.078 152.968 822.735 158.022 818.756C163.076 814.776 170.418 815.654 174.393 820.702L175.822 819.576C171.226 813.74 162.733 812.73 156.896 817.326Z" fill="#F76457"/>
<path d="M142.402 798.92C126.417 811.509 123.652 834.76 136.241 850.746L140.156 847.663C129.272 833.843 131.662 813.74 145.495 802.847C159.321 791.959 179.424 794.349 190.307 808.169L194.222 805.087C181.638 789.107 158.388 786.332 142.402 798.92Z" fill="#F76457"/>
<path d="M129.247 856.253C113.633 836.413 117.068 807.57 136.903 791.95C156.744 776.325 185.588 779.76 201.203 799.589L201.233 799.565C201.045 799.339 200.851 799.117 200.664 798.88L206.252 794.479C188.067 772.157 155.165 768.449 132.464 786.325C109.764 804.201 105.66 837.051 123.091 859.968L128.714 855.539C128.901 855.777 129.065 856.022 129.247 856.253Z" fill="#F76457"/>
<path d="M99.8222 904.421C90.9248 911.427 77.9837 909.894 70.9772 900.996L68.4562 902.982C76.5558 913.267 91.5208 915.052 101.812 906.947C112.097 898.848 113.876 883.887 105.772 873.596L103.251 875.581C110.256 884.489 108.72 897.414 99.8222 904.421Z" fill="#F76457"/>
<path d="M95.4588 898.881C101.296 894.285 102.305 885.792 97.7089 879.955L96.2794 881.081C100.254 886.129 99.3809 893.476 94.3331 897.451C89.2794 901.431 81.9424 900.559 77.9626 895.505L76.5331 896.631C81.1235 902.472 89.6162 903.482 95.4588 898.881Z" fill="#F76457"/>
<path d="M109.948 917.28C125.928 904.696 128.703 881.446 116.11 865.455L112.189 868.542C123.077 882.369 120.692 902.477 106.865 913.365C93.0388 924.254 72.9257 921.862 62.0374 908.036L73.4768 922.562C85.3066 927.248 99.2477 925.707 109.948 917.28Z" fill="#F76457"/>
<path d="M129.247 856.253C129.065 856.022 128.9 855.776 128.713 855.539L123.102 859.958L123.09 859.967C138.715 879.808 135.28 908.652 115.451 924.267C105.705 931.942 93.7878 935.004 82.3286 933.802L88.1534 941.199C99.3015 940.992 110.461 937.298 119.874 929.885C142.579 912.015 146.673 879.163 129.247 856.253Z" fill="#F76457"/>
<path d="M305.69 687.083C295.404 695.182 293.62 710.147 301.715 720.427L304.241 718.437C297.24 709.546 298.773 696.604 307.67 689.598C316.567 682.591 329.507 684.135 336.509 693.026L339.036 691.037C330.94 680.768 315.975 678.983 305.69 687.083Z" fill="#F76457"/>
<path d="M312.043 695.15C306.206 699.747 305.197 708.239 309.793 714.076L311.223 712.95C307.247 707.902 308.115 700.559 313.169 696.58C318.223 692.6 325.564 693.478 329.539 698.526L330.969 697.4C326.372 691.564 317.88 690.554 312.043 695.15Z" fill="#F76457"/>
<path d="M297.549 676.744C281.563 689.333 278.799 712.584 291.387 728.57L295.302 725.487C284.419 711.667 286.809 691.564 300.641 680.671C314.468 669.783 334.576 672.168 345.46 685.989L349.375 682.906C336.791 666.926 313.535 664.156 297.549 676.744Z" fill="#F76457"/>
<path d="M284.4 734.073C268.786 714.233 272.22 685.389 292.055 669.769C311.897 654.144 340.741 657.579 356.356 677.408L356.385 677.385C356.197 677.158 356.003 676.936 355.817 676.699L361.41 672.294C343.226 649.971 310.323 646.264 287.623 664.14C264.922 682.016 260.818 714.866 278.249 737.782L283.86 733.364C284.047 733.601 284.223 733.837 284.4 734.073Z" fill="#F76457"/>
<path d="M256.959 784.771C267.244 776.672 269.023 761.711 260.919 751.42L258.398 753.405C265.404 762.303 263.866 775.238 254.969 782.244C246.072 789.251 233.13 787.718 226.124 778.82L223.603 780.806C231.707 791.097 246.668 792.876 256.959 784.771Z" fill="#F76457"/>
<path d="M250.606 776.705C256.442 772.109 257.452 763.616 252.856 757.779L251.426 758.905C255.401 763.953 254.534 771.296 249.48 775.275C244.426 779.255 237.089 778.383 233.109 773.329L231.68 774.455C236.276 780.292 244.763 781.306 250.606 776.705Z" fill="#F76457"/>
<path d="M262.012 791.189C248.186 802.077 228.072 799.686 217.184 785.86L213.269 788.943C225.858 804.928 249.104 807.697 265.095 795.104C281.081 782.516 283.85 759.27 271.257 743.278L267.342 746.361C278.229 760.198 275.839 780.301 262.012 791.189Z" fill="#F76457"/>
<path d="M201.238 799.56C219.423 821.883 252.325 825.591 275.026 807.714C297.726 789.838 301.83 756.988 284.399 734.072C284.223 733.836 284.053 733.595 283.866 733.358L278.254 737.777L278.243 737.786C293.867 757.627 290.433 786.471 270.603 802.087C250.762 817.711 221.918 814.277 206.298 794.441L206.269 794.465L200.681 798.865C200.856 799.112 201.05 799.334 201.238 799.56Z" fill="#F76457"/>
<path d="M356.385 677.384C374.569 699.707 407.472 703.414 430.172 685.538C452.873 667.662 456.977 634.812 439.546 611.896C439.37 611.66 439.199 611.419 439.012 611.182L433.401 615.601C449.026 635.442 445.585 664.291 425.75 679.911C405.909 695.535 377.065 692.101 361.445 672.265L361.415 672.289L355.828 676.689C356.003 676.935 356.197 677.157 356.385 677.384Z" fill="#F76457"/>
<path d="M96.6998 740.885C86.4144 748.985 84.6252 763.944 92.7295 774.235L95.2563 772.246C88.2497 763.348 89.7876 750.413 98.685 743.406C107.582 736.4 120.518 737.938 127.524 746.835L130.051 744.845C121.941 734.559 106.985 732.786 96.6998 740.885Z" fill="#F76457"/>
<path d="M103.048 748.946C97.2113 753.543 96.2016 762.035 100.798 767.872L102.227 766.746C98.2477 761.692 99.12 754.355 104.174 750.376C109.227 746.396 116.564 747.268 120.544 752.322L121.974 751.196C117.377 745.36 108.885 744.35 103.048 748.946Z" fill="#F76457"/>
<path d="M88.5586 730.546C72.573 743.135 69.8039 766.38 82.3971 782.372L86.3119 779.289C75.4237 765.463 77.8137 745.36 91.6462 734.467C105.473 723.579 125.575 725.969 136.464 739.795L140.378 736.713C127.785 720.721 104.544 717.958 88.5586 730.546Z" fill="#F76457"/>
<path d="M75.4036 787.879C59.7896 768.039 63.2195 739.19 83.0547 723.57C102.896 707.945 131.74 711.38 147.36 731.215L147.389 731.191C147.201 730.965 147.007 730.743 146.82 730.505L152.408 726.105C134.224 703.782 101.321 700.075 78.6207 717.951C55.9205 735.827 51.816 768.677 69.2471 791.594L74.8702 787.165C75.0524 787.397 75.2215 787.648 75.4036 787.879Z" fill="#F76457"/>
<path d="M45.9786 836.047C37.0812 843.053 24.1401 841.52 17.1335 832.622L14.6125 834.608C22.7121 844.893 37.6725 846.672 47.9638 838.567C58.2492 830.468 60.0325 815.513 51.9282 805.222L49.4072 807.207C56.4079 816.109 54.876 829.04 45.9786 836.047Z" fill="#F76457"/>
<path d="M41.6152 830.507C47.4518 825.911 48.4616 817.418 43.8652 811.581L42.4357 812.707C46.4108 817.755 45.5372 825.102 40.4894 829.077C35.4357 833.057 28.094 832.179 24.119 827.131L22.6895 828.257C27.2799 834.098 35.7725 835.108 41.6152 830.507Z" fill="#F76457"/>
<path d="M56.1051 848.907C72.0848 836.323 74.8551 813.067 62.2666 797.081L58.3459 800.169C69.2341 813.995 66.8441 834.098 53.0176 844.986C39.191 855.874 19.0825 853.489 8.19427 839.662L19.629 854.183C31.4635 858.875 45.4045 857.333 56.1051 848.907Z" fill="#F76457"/>
<path d="M75.4035 787.879C75.2213 787.648 75.0569 787.403 74.8701 787.165L69.2588 791.584L69.247 791.594C84.867 811.429 81.437 840.279 61.6077 855.894C51.8621 863.569 39.9492 866.636 28.4854 865.429L34.3149 872.832C45.4629 872.625 56.6224 868.93 66.0358 861.517C88.7314 843.635 92.8299 810.79 75.4035 787.879Z" fill="#F76457"/>
<path d="M251.846 618.709C241.561 626.809 239.772 641.768 247.876 652.059L250.403 650.07C243.396 641.172 244.934 628.237 253.832 621.23C262.729 614.224 275.664 615.762 282.671 624.659L285.198 622.669C277.087 612.383 262.132 610.61 251.846 618.709Z" fill="#F76457"/>
<path d="M258.195 626.77C252.358 631.367 251.348 639.859 255.945 645.696L257.374 644.57C253.394 639.516 254.267 632.179 259.32 628.2C264.374 624.22 271.711 625.092 275.691 630.146L277.12 629.02C272.524 623.184 264.031 622.174 258.195 626.77Z" fill="#F76457"/>
<path d="M243.705 608.37C227.72 620.959 224.951 644.205 237.544 660.196L241.459 657.113C230.57 643.287 232.96 623.184 246.793 612.291C260.619 601.403 280.728 603.788 291.616 617.615L295.531 614.532C282.938 598.54 259.691 595.782 243.705 608.37Z" fill="#F76457"/>
<path d="M230.556 665.699C214.942 645.859 218.372 617.009 238.207 601.389C258.048 585.764 286.892 589.199 302.512 609.034L302.542 609.011C302.354 608.784 302.16 608.562 301.973 608.325L307.566 603.92C289.382 581.597 256.479 577.89 233.779 595.766C211.079 613.642 206.974 646.492 224.405 669.408L230.017 664.99C230.199 665.221 230.38 665.463 230.556 665.699Z" fill="#F76457"/>
<path d="M203.111 716.391C213.396 708.292 215.179 693.337 207.075 683.046L204.554 685.031C211.561 693.929 210.023 706.864 201.125 713.87C192.228 720.877 179.287 719.344 172.28 710.446L169.759 712.432C177.864 722.723 192.819 724.496 203.111 716.391Z" fill="#F76457"/>
<path d="M196.762 708.331C202.599 703.735 203.608 695.242 199.012 689.405L197.582 690.531C201.558 695.579 200.69 702.922 195.636 706.901C190.582 710.881 183.241 710.003 179.266 704.955L177.836 706.081C182.433 711.918 190.919 712.932 196.762 708.331Z" fill="#F76457"/>
<path d="M208.164 722.81C194.338 733.698 174.229 731.313 163.341 717.486L159.426 720.569C172.01 736.549 195.26 739.324 211.252 726.731C227.238 714.142 230.002 690.891 217.413 674.905L213.499 677.988C224.381 691.819 221.991 711.922 208.164 722.81Z" fill="#F76457"/>
<path d="M147.395 731.187C165.575 753.504 198.478 757.211 221.178 739.335C243.878 721.459 247.977 688.614 230.556 665.699C230.38 665.463 230.21 665.222 230.023 664.985L224.411 669.404L224.4 669.413C240.02 689.248 236.59 718.098 216.76 733.713C196.919 749.338 168.075 745.904 152.455 726.068L152.426 726.092L146.838 730.492C147.008 730.732 147.207 730.96 147.395 731.187Z" fill="#F76457"/>
<path d="M385.703 543.523L385.715 543.513C370.095 523.678 373.525 494.828 393.354 479.213C413.195 463.588 442.039 467.023 457.659 486.858L457.689 486.835C457.501 486.608 457.307 486.386 457.12 486.149L462.707 481.749C444.523 459.426 411.62 455.718 388.92 473.594C366.22 491.471 362.121 524.316 379.546 547.237L385.158 542.818C385.352 543.04 385.527 543.287 385.703 543.523Z" fill="#F76457"/>
<path d="M358.257 594.215C368.543 586.116 370.332 571.157 362.227 560.865L359.701 562.855C366.707 571.753 365.169 584.688 356.272 591.694C347.375 598.701 334.439 597.163 327.433 588.266L324.906 590.256C333.016 600.542 347.972 602.315 358.257 594.215Z" fill="#F76457"/>
<path d="M351.909 586.155C357.745 581.558 358.755 573.066 354.159 567.229L352.729 568.355C356.704 573.403 355.837 580.745 350.783 584.725C345.729 588.705 338.387 587.827 334.412 582.779L332.983 583.905C337.579 589.741 346.072 590.751 351.909 586.155Z" fill="#F76457"/>
<path d="M363.311 600.634C349.484 611.522 329.376 609.137 318.488 595.31L314.573 598.393C327.157 614.373 350.407 617.148 366.399 604.555C382.384 591.966 385.149 568.715 372.56 552.729L368.645 555.812C379.533 569.638 377.138 589.746 363.311 600.634Z" fill="#F76457"/>
<path d="M302.542 609.011C320.722 631.328 353.624 635.035 376.325 617.159C399.025 599.283 403.129 566.433 385.703 543.523C385.527 543.287 385.356 543.046 385.169 542.809L379.558 547.228C395.178 567.063 391.742 595.917 371.907 611.537C352.066 627.162 323.222 623.728 307.602 603.892L307.572 603.916L301.985 608.316C302.155 608.556 302.354 608.784 302.542 609.011Z" fill="#F76457"/>
<path d="M42.8519 672.506C32.5666 680.606 30.782 695.571 38.8863 705.862L41.4131 703.872C34.4065 694.975 35.9397 682.034 44.8371 675.027C53.7345 668.02 66.6744 669.564 73.681 678.462L76.2078 676.472C68.0976 666.185 53.1373 664.407 42.8519 672.506Z" fill="#F76457"/>
<path d="M49.205 680.573C43.3683 685.169 42.3586 693.662 46.9549 699.499L48.3844 698.373C44.4047 693.319 45.277 685.982 50.3307 682.003C55.3844 678.023 62.7214 678.895 66.7012 683.949L68.1307 682.823C63.5344 676.986 55.0416 675.977 49.205 680.573Z" fill="#F76457"/>
<path d="M34.7154 662.173C18.7298 674.761 15.9607 698.007 28.5539 713.999L32.4687 710.916C21.5805 697.089 23.9658 676.981 37.7983 666.088C51.6249 655.2 71.7275 657.59 82.6203 671.422L86.5352 668.339C73.9421 652.348 50.7011 649.584 34.7154 662.173Z" fill="#F76457"/>
<path d="M21.5559 719.5C5.93717 699.654 9.37177 670.81 29.207 655.19C49.0482 639.566 77.892 643 93.512 662.836L93.5417 662.812C93.3489 662.58 93.1549 662.358 92.9681 662.12L98.5556 657.72C80.3758 635.403 47.4731 631.696 24.7729 649.572C2.07273 667.448 -2.03174 700.298 15.3947 723.208L21.0178 718.78C21.2047 719.018 21.3691 719.263 21.5559 719.5Z" fill="#F76457"/>
<path d="M-7.8645 767.673C-16.7619 774.68 -29.7077 773.141 -36.7143 764.243L-39.2352 766.228C-31.1356 776.514 -16.1706 778.298 -5.87931 770.194C4.40607 762.095 6.18472 747.134 -1.91956 736.843L-4.4405 738.828C2.56015 747.73 1.03289 760.667 -7.8645 767.673Z" fill="#F76457"/>
<path d="M2.25748 780.528C18.2372 767.944 21.0122 744.694 8.41899 728.702L4.49824 731.79C15.3865 745.616 12.9965 765.719 -0.830084 776.607C-14.6566 787.495 -34.7652 785.11 -45.6534 771.283L-34.214 785.81C-22.3842 790.496 -8.44311 788.954 2.25748 780.528Z" fill="#F76457"/>
<path d="M21.5559 719.501C21.3691 719.263 21.2047 719.018 21.0178 718.781L15.4066 723.199L15.3947 723.209C31.0194 743.05 27.5848 771.894 7.75546 787.509C-1.99014 795.184 -13.903 798.251 -25.3668 797.044L-19.5374 804.447C-8.38931 804.24 2.77018 800.545 12.1836 793.132C34.8885 775.262 38.9824 742.411 21.5559 719.501Z" fill="#F76457"/>
<path d="M197.999 550.33C187.713 558.43 185.929 573.395 194.033 583.686L196.56 581.696C189.553 572.799 191.086 559.858 199.984 552.851C208.881 545.844 221.821 547.388 228.828 556.286L231.354 554.296C223.244 544.009 208.284 542.231 197.999 550.33Z" fill="#F76457"/>
<path d="M204.352 558.397C198.515 562.993 197.505 571.486 202.102 577.323L203.531 576.197C199.551 571.143 200.424 563.806 205.477 559.827C210.531 555.847 217.868 556.719 221.848 561.773L223.277 560.647C218.681 554.81 210.188 553.801 204.352 558.397Z" fill="#F76457"/>
<path d="M189.862 539.997C173.876 552.585 171.107 575.831 183.701 591.823L187.615 588.74C176.727 574.913 179.113 554.805 192.945 543.912C206.772 533.024 226.88 535.409 237.773 549.241L241.688 546.158C229.095 530.167 205.848 527.408 189.862 539.997Z" fill="#F76457"/>
<path d="M176.708 597.32C161.09 577.474 164.524 548.63 184.359 533.01C204.201 517.385 233.044 520.82 248.664 540.655L248.694 540.632C248.501 540.399 248.307 540.177 248.12 539.94L253.714 535.535C235.534 513.218 202.631 509.511 179.931 527.387C157.231 545.263 153.127 578.113 170.553 601.023L176.164 596.604C176.351 596.842 176.527 597.078 176.708 597.32Z" fill="#F76457"/>
<path d="M149.267 648.018C159.553 639.918 161.331 624.958 153.227 614.667L150.706 616.652C157.713 625.549 156.18 638.491 147.282 645.497C138.385 652.504 125.439 650.965 118.432 642.067L115.912 644.052C124.011 654.338 138.976 656.122 149.267 648.018Z" fill="#F76457"/>
<path d="M142.91 639.946C148.746 635.35 149.756 626.857 145.16 621.02L143.73 622.146C147.71 627.2 146.838 634.537 141.784 638.516C136.73 642.496 129.393 641.624 125.413 636.57L123.984 637.696C128.58 643.533 137.067 644.547 142.91 639.946Z" fill="#F76457"/>
<path d="M154.321 654.437C140.495 665.325 120.386 662.94 109.498 649.113L105.583 652.196C118.172 668.182 141.417 670.951 157.409 658.357C173.394 645.769 176.164 622.523 163.57 606.532L159.656 609.615C170.533 623.44 168.148 643.548 154.321 654.437Z" fill="#F76457"/>
<path d="M93.5474 662.808C111.727 685.125 144.635 688.838 167.335 670.962C190.035 653.086 194.135 620.23 176.708 597.32C176.527 597.078 176.357 596.837 176.17 596.6L170.559 601.019L170.547 601.028C186.172 620.869 182.737 649.713 162.908 665.328C143.067 680.953 114.223 677.518 98.6028 657.683L98.5732 657.706L92.9856 662.107C93.1606 662.353 93.3547 662.575 93.5474 662.808Z" fill="#F76457"/>
<path d="M353.145 428.154C342.86 436.254 341.081 451.214 349.186 461.505L351.707 459.52C344.7 450.623 346.233 437.681 355.131 430.675C364.028 423.668 376.974 425.207 383.98 434.105L386.501 432.12C378.397 421.828 363.437 420.05 353.145 428.154Z" fill="#F76457"/>
<path d="M359.498 436.221C353.662 440.817 352.652 449.31 357.248 455.147L358.678 454.021C354.698 448.967 355.57 441.63 360.624 437.651C365.678 433.671 373.015 434.543 376.995 439.597L378.424 438.471C373.828 432.634 365.341 431.62 359.498 436.221Z" fill="#F76457"/>
<path d="M345.009 417.821C329.023 430.409 326.254 453.655 338.847 469.647L342.774 466.554C331.886 452.728 334.271 432.619 348.097 421.731C361.924 410.843 382.033 413.228 392.925 427.061L396.84 423.978C384.241 407.991 361 405.228 345.009 417.821Z" fill="#F76457"/>
<path d="M331.855 475.143L331.867 475.134C316.242 455.293 319.677 426.449 339.506 410.834C359.347 395.209 388.191 398.644 403.811 418.479L403.841 418.456C403.648 418.223 403.454 418.001 403.267 417.764L408.855 413.364C390.675 391.047 357.772 387.339 335.072 405.215C312.372 423.091 308.268 455.942 325.694 478.852L331.305 474.433C331.504 474.661 331.674 474.902 331.855 475.143Z" fill="#F76457"/>
<path d="M304.414 525.842C314.699 517.742 316.484 502.777 308.38 492.486L305.853 494.476C312.859 503.373 311.326 516.315 302.429 523.321C293.532 530.328 280.592 528.784 273.585 519.887L271.058 521.876C279.164 532.157 294.129 533.942 304.414 525.842Z" fill="#F76457"/>
<path d="M298.056 517.77C303.893 513.174 304.903 504.681 300.306 498.844L298.877 499.97C302.857 505.024 301.984 512.361 296.931 516.34C291.877 520.32 284.54 519.448 280.56 514.394L279.131 515.52C283.727 521.356 292.22 522.366 298.056 517.77Z" fill="#F76457"/>
<path d="M309.468 532.261C295.641 543.149 275.533 540.764 264.645 526.937L260.73 530.02C273.318 546.005 296.564 548.775 312.555 536.181C328.541 523.593 331.31 500.347 318.717 484.356L314.802 487.439C325.686 501.259 323.294 521.372 309.468 532.261Z" fill="#F76457"/>
<path d="M248.694 540.632C266.874 562.949 299.781 566.662 322.481 548.786C345.182 530.91 349.281 498.054 331.855 475.144C331.674 474.902 331.504 474.661 331.317 474.424L325.706 478.842C341.33 498.684 337.89 527.532 318.055 543.152C298.213 558.777 269.37 555.342 253.75 535.507L253.72 535.53L248.132 539.931C248.307 540.177 248.501 540.399 248.694 540.632Z" fill="#F76457"/>
<path d="M-10.9957 604.127C-21.281 612.227 -23.0656 627.192 -14.9613 637.483L-12.4345 635.493C-19.441 626.596 -17.9079 613.655 -9.01047 606.648C-0.113084 599.641 12.8268 601.185 19.8334 610.083L22.3602 608.093C14.2547 597.812 -0.710285 596.027 -10.9957 604.127Z" fill="#F76457"/>
<path d="M-4.6381 612.2C-10.4748 616.796 -11.4845 625.289 -6.88818 631.125L-5.45864 630C-9.43837 624.946 -8.5661 617.609 -3.51239 613.629C1.54133 609.65 8.87836 610.522 12.8581 615.576L14.2876 614.45C9.69128 608.613 1.19859 607.603 -4.6381 612.2Z" fill="#F76457"/>
<path d="M-19.1322 593.794C-35.1179 606.382 -37.8869 629.628 -25.2938 645.62L-21.3789 642.537C-32.2671 628.71 -29.8771 608.608 -16.0447 597.715C-2.21814 586.826 17.8845 589.216 28.7727 603.043L32.6876 599.96C20.0991 583.974 -3.1466 581.205 -19.1322 593.794Z" fill="#F76457"/>
<path d="M-32.2872 651.127C-47.906 631.281 -44.4714 602.437 -24.6361 586.817C-4.79495 571.192 24.0489 574.627 39.6689 594.462L39.6986 594.439C39.5058 594.206 39.3118 593.984 39.1249 593.747L44.7124 589.347C26.528 567.024 -6.37467 563.317 -29.0749 581.193C-51.7751 599.069 -55.8795 631.919 -38.4484 654.835L-32.8253 650.407C-32.6385 650.644 -32.4741 650.89 -32.2872 651.127Z" fill="#F76457"/>
<path d="M144.151 481.951C133.866 490.051 132.081 505.016 140.185 515.307L142.712 513.317C135.706 504.42 137.239 491.479 146.136 484.472C155.033 477.465 167.973 479.009 174.98 487.907L177.507 485.917C169.401 475.636 154.436 473.851 144.151 481.951Z" fill="#F76457"/>
<path d="M150.509 490.024C144.672 494.62 143.662 503.113 148.258 508.949L149.688 507.824C145.708 502.77 146.581 495.433 151.634 491.453C156.688 487.474 164.025 488.346 168.005 493.4L169.434 492.274C164.838 486.437 156.345 485.427 150.509 490.024Z" fill="#F76457"/>
<path d="M136.014 471.618C120.029 484.206 117.26 507.452 129.853 523.444L133.768 520.361C122.88 506.534 125.27 486.432 139.102 475.539C152.929 464.65 173.037 467.036 183.925 480.862L187.84 477.779C175.252 461.794 152 459.029 136.014 471.618Z" fill="#F76457"/>
<path d="M122.865 528.946C107.246 509.101 110.681 480.257 130.516 464.637C150.357 449.012 179.201 452.447 194.821 472.282L194.851 472.258C194.658 472.026 194.464 471.804 194.277 471.567L199.871 467.162C181.686 444.839 148.784 441.131 126.083 459.008C103.383 476.884 99.2788 509.734 116.71 532.65L122.321 528.231C122.508 528.468 122.684 528.704 122.865 528.946Z" fill="#F76457"/>
<path d="M95.4197 579.639C105.705 571.539 107.484 556.579 99.3795 546.288L96.8585 548.273C103.865 557.17 102.327 570.106 93.4299 577.112C84.5325 584.119 71.5913 582.585 64.5848 573.688L62.0638 575.673C70.1681 585.965 85.1284 587.743 95.4197 579.639Z" fill="#F76457"/>
<path d="M89.0666 571.573C94.9033 566.976 95.913 558.484 91.3166 552.647L89.8871 553.773C93.8669 558.826 92.9946 566.163 87.9409 570.143C82.8872 574.123 75.5501 573.251 71.5704 568.197L70.1409 569.323C74.7372 575.159 83.224 576.174 89.0666 571.573Z" fill="#F76457"/>
<path d="M100.473 586.057C86.6467 596.945 66.5381 594.56 55.6452 580.727L51.7304 583.81C64.3189 599.796 87.5646 602.565 103.556 589.972C119.542 577.383 122.311 554.138 109.718 538.146L105.803 541.229C116.69 555.066 114.3 575.169 100.473 586.057Z" fill="#F76457"/>
<path d="M39.704 594.434C57.8837 616.751 90.7865 620.458 113.487 602.582C136.187 584.706 140.285 551.861 122.865 528.946C122.684 528.704 122.514 528.463 122.327 528.226L116.716 532.645L116.704 532.654C132.328 552.495 128.894 581.339 109.064 596.954C89.2233 612.579 60.3794 609.145 44.7594 589.309L44.7298 589.333L39.1422 593.733C39.3172 593.979 39.5112 594.201 39.704 594.434Z" fill="#F76457"/>
<path d="M299.298 359.775C289.012 367.875 287.234 382.835 295.338 393.126L297.859 391.141C290.852 382.244 292.386 369.302 301.283 362.296C310.18 355.289 323.126 356.828 330.133 365.726L332.654 363.741C324.554 353.455 309.589 351.671 299.298 359.775Z" fill="#F76457"/>
<path d="M305.655 367.848C299.819 372.444 298.809 380.937 303.405 386.773L304.835 385.648C300.855 380.594 301.727 373.257 306.781 369.277C311.835 365.297 319.172 366.17 323.151 371.223L324.581 370.098C319.985 364.261 311.498 363.247 305.655 367.848Z" fill="#F76457"/>
<path d="M291.161 349.442C275.175 362.03 272.406 385.276 285 401.268L288.926 398.175C278.038 384.349 280.428 364.246 294.255 353.358C308.081 342.47 328.19 344.855 339.078 358.682L342.993 355.599C330.398 339.618 307.153 336.849 291.161 349.442Z" fill="#F76457"/>
<path d="M278.012 406.77L278.024 406.761C262.399 386.92 265.834 358.076 285.663 342.46C305.504 326.836 334.348 330.27 349.968 350.106L349.998 350.082C349.805 349.85 349.611 349.628 349.424 349.39L355.012 344.99C336.827 322.667 303.925 318.96 281.224 336.836C258.524 354.712 254.426 387.558 271.851 410.478L277.462 406.06C277.661 406.288 277.831 406.528 278.012 406.77Z" fill="#F76457"/>
<path d="M250.566 457.463C260.852 449.363 262.636 434.398 254.532 424.107L252.005 426.097C259.012 434.994 257.474 447.93 248.577 454.936C239.679 461.943 226.744 460.405 219.737 451.507L217.21 453.497C225.321 463.784 240.281 465.563 250.566 457.463Z" fill="#F76457"/>
<path d="M244.213 449.397C250.05 444.8 251.06 436.307 246.463 430.471L245.034 431.597C249.014 436.65 248.141 443.987 243.088 447.967C238.034 451.947 230.697 451.074 226.717 446.021L225.288 447.146C229.884 452.983 238.377 453.993 244.213 449.397Z" fill="#F76457"/>
<path d="M255.62 463.881C241.793 474.769 221.685 472.384 210.792 458.551L206.877 461.634C219.465 477.62 242.711 480.389 258.703 467.796C274.688 455.207 277.457 431.962 264.864 415.97L260.949 419.053C271.842 432.885 269.446 452.993 255.62 463.881Z" fill="#F76457"/>
<path d="M194.851 472.258C213.03 494.575 245.933 498.282 268.633 480.406C291.334 462.53 295.438 429.68 278.012 406.77C277.831 406.528 277.66 406.287 277.474 406.05L271.862 410.469C287.487 430.31 284.046 459.158 264.211 474.778C244.37 490.403 215.526 486.969 199.906 467.133L199.876 467.157L194.289 471.557C194.464 471.803 194.658 472.025 194.851 472.258Z" fill="#F76457"/>
<path d="M350.003 350.077C368.183 372.394 401.086 376.102 423.786 358.226C446.486 340.35 450.591 307.499 433.164 284.589C432.983 284.347 432.813 284.107 432.626 283.869L427.015 288.288L427.009 288.293C442.633 308.134 439.199 336.978 419.364 352.598C399.528 368.218 370.679 364.788 355.059 344.953L355.029 344.976L349.441 349.376C349.616 349.623 349.804 349.849 350.003 350.077Z" fill="#F76457"/>
<path d="M90.3073 413.577C80.022 421.677 78.2327 436.636 86.337 446.927L88.8639 444.937C81.8573 436.04 83.3951 423.105 92.2925 416.098C101.19 409.091 114.125 410.629 121.132 419.527L123.659 417.537C115.548 407.25 100.593 405.478 90.3073 413.577Z" fill="#F76457"/>
<path d="M96.6558 421.638C90.8191 426.234 89.8094 434.727 94.4057 440.564L95.8352 439.438C91.8602 434.39 92.7278 427.047 97.7815 423.068C102.835 419.088 110.177 419.966 114.152 425.014L115.581 423.888C110.985 418.051 102.492 417.042 96.6558 421.638Z" fill="#F76457"/>
<path d="M82.1662 403.238C66.1805 415.826 63.4115 439.072 76.0046 455.064L79.9195 451.981C69.0313 438.154 71.4213 418.052 85.2537 407.159C99.0803 396.27 119.189 398.656 130.077 412.482L133.992 409.399C121.399 393.408 98.1518 390.649 82.1662 403.238Z" fill="#F76457"/>
<path d="M69.0169 460.566C53.3981 440.721 56.8374 411.883 76.6727 396.263C96.5138 380.638 125.353 384.067 140.973 403.902L141.003 403.879C140.815 403.652 140.616 403.424 140.434 403.193L146.027 398.788C127.843 376.465 94.94 372.758 72.2398 390.634C49.5396 408.51 45.4352 441.36 62.8663 464.276L68.4776 459.857C68.6551 460.083 68.8406 460.33 69.0169 460.566Z" fill="#F76457"/>
<path d="M41.5716 511.259C51.857 503.16 53.6403 488.205 45.536 477.914L43.0151 479.899C50.0216 488.796 48.4838 501.732 39.5864 508.738C30.689 515.745 17.7479 514.212 10.7413 505.314L8.22035 507.299C16.3246 517.591 31.2803 519.363 41.5716 511.259Z" fill="#F76457"/>
<path d="M35.2235 503.199C41.0602 498.603 42.0698 490.11 37.4735 484.274L36.044 485.399C40.0191 490.447 39.1515 497.79 34.0978 501.77C29.044 505.75 21.7023 504.871 17.7273 499.824L16.2978 500.949C20.8941 506.786 29.3809 507.8 35.2235 503.199Z" fill="#F76457"/>
<path d="M46.6254 517.678C32.7989 528.566 12.6903 526.181 1.8021 512.354L-2.11272 515.437C10.4758 531.423 33.7214 534.192 49.713 521.599C65.6986 509.01 68.4677 485.764 55.8745 469.773L51.9596 472.856C62.8419 486.687 60.452 506.79 46.6254 517.678Z" fill="#F76457"/>
<path d="M-14.1439 526.055C4.04051 548.378 36.9433 552.085 59.6435 534.209C82.3437 516.333 86.4481 483.483 69.017 460.566C68.8408 460.33 68.6658 460.084 68.4836 459.853L62.8723 464.271L62.8605 464.281C78.4805 484.116 75.0506 512.966 55.2213 528.581C35.3801 544.206 6.53621 540.771 -9.08379 520.936L-9.11343 520.959L-14.701 525.359C-14.5354 525.594 -14.332 525.828 -14.1439 526.055Z" fill="#F76457"/>
<path d="M245.454 291.401C235.169 299.501 233.385 314.455 241.49 324.746L244.011 322.761C237.004 313.864 238.542 300.928 247.439 293.922C256.337 286.915 269.278 288.449 276.284 297.346L278.805 295.361C270.701 285.069 255.745 283.297 245.454 291.401Z" fill="#F76457"/>
<path d="M251.802 299.462C245.966 304.058 244.956 312.551 249.552 318.388L250.982 317.262C247.007 312.214 247.874 304.871 252.928 300.891C257.982 296.912 265.324 297.79 269.299 302.838L270.728 301.712C266.132 295.875 257.645 294.861 251.802 299.462Z" fill="#F76457"/>
<path d="M237.313 281.062C221.327 293.651 218.558 316.896 231.151 332.888L235.078 329.796C224.19 315.969 226.58 295.866 240.406 284.978C254.233 274.09 274.341 276.475 285.23 290.302L289.144 287.219C276.545 271.232 253.304 268.469 237.313 281.062Z" fill="#F76457"/>
<path d="M224.164 338.39L224.176 338.381C208.551 318.54 211.99 289.702 231.82 274.087C251.661 258.462 280.5 261.891 296.12 281.726L296.15 281.702C295.961 281.476 295.763 281.248 295.581 281.017L301.168 276.616C282.984 254.293 250.081 250.586 227.381 268.462C204.681 286.338 200.576 319.188 218.007 342.105L223.619 337.686C223.808 337.902 223.988 338.154 224.164 338.39Z" fill="#F76457"/>
<path d="M196.718 389.083C207.004 380.984 208.793 366.025 200.689 355.733L198.162 357.723C205.168 366.62 203.63 379.556 194.733 386.562C185.836 393.569 172.9 392.031 165.894 383.134L163.367 385.123C171.477 395.41 186.433 397.183 196.718 389.083Z" fill="#F76457"/>
<path d="M190.37 381.023C196.207 376.427 197.217 367.934 192.62 362.098L191.191 363.223C195.166 368.271 194.298 375.614 189.244 379.594C184.191 383.573 176.849 382.695 172.874 377.648L171.444 378.773C176.041 384.61 184.533 385.62 190.37 381.023Z" fill="#F76457"/>
<path d="M201.772 395.502C187.946 406.39 167.837 404.005 156.949 390.178L153.034 393.261C165.622 409.247 188.868 412.016 204.86 399.423C220.845 386.834 223.614 363.588 211.021 347.597L207.106 350.68C217.995 364.506 215.599 384.614 201.772 395.502Z" fill="#F76457"/>
<path d="M141.003 403.879C159.187 426.202 192.09 429.909 214.79 412.033C237.49 394.157 241.595 361.307 224.164 338.39C223.987 338.154 223.813 337.908 223.63 337.677L218.019 342.095C233.639 361.931 230.203 390.785 210.368 406.405C190.527 422.03 161.683 418.595 146.063 398.76L146.033 398.783L140.446 403.183C140.611 403.418 140.815 403.652 141.003 403.879Z" fill="#F76457"/>
<path d="M373.161 219.913L378.773 215.495C378.955 215.726 379.13 215.972 379.306 216.208L379.318 216.199C363.693 196.358 367.132 167.52 386.962 151.905C396.707 144.23 408.626 141.158 420.084 142.37L414.255 134.967C403.112 135.169 391.947 138.869 382.534 146.282C359.833 164.158 355.735 197.003 373.161 219.913Z" fill="#F76457"/>
<path d="M351.864 266.908C362.15 258.808 363.933 243.854 355.829 233.562L353.302 235.552C360.308 244.45 358.771 257.385 349.873 264.391C340.976 271.398 328.041 269.86 321.034 260.963L318.507 262.953C326.623 273.235 341.579 275.007 351.864 266.908Z" fill="#F76457"/>
<path d="M345.517 258.847C351.354 254.251 352.363 245.758 347.767 239.922L346.338 241.047C350.313 246.095 349.445 253.438 344.391 257.418C339.338 261.397 331.996 260.519 328.021 255.471L326.591 256.597C331.188 262.434 339.68 263.444 345.517 258.847Z" fill="#F76457"/>
<path d="M356.919 273.326C343.092 284.214 322.984 281.829 312.096 268.002L308.181 271.085C320.769 287.071 344.015 289.84 360.006 277.246C375.998 264.653 378.761 241.412 366.168 225.421L362.253 228.504C373.141 242.33 370.745 262.437 356.919 273.326Z" fill="#F76457"/>
<path d="M296.155 281.698C314.34 304.021 347.242 307.728 369.943 289.852C392.643 271.976 396.747 239.126 379.316 216.21C379.14 215.974 378.965 215.727 378.783 215.496L373.172 219.915L373.166 219.919C388.786 239.755 385.356 268.604 365.52 284.224C345.685 299.844 316.835 296.414 301.215 276.579L301.186 276.603L295.598 281.003C295.764 281.237 295.961 281.476 296.155 281.698Z" fill="#F76457"/>
<path d="M36.4596 345.198C26.1742 353.298 24.3897 368.263 32.4893 378.548L35.0162 376.558C28.0096 367.661 29.5474 354.725 38.4448 347.719C47.3422 340.712 60.2774 342.25 67.284 351.148L69.8109 349.158C61.7053 338.877 46.745 337.098 36.4596 345.198Z" fill="#F76457"/>
<path d="M42.8126 353.265C36.9759 357.861 35.9662 366.354 40.5625 372.19L41.992 371.065C38.017 366.017 38.8846 358.674 43.9383 354.694C48.992 350.714 56.329 351.587 60.3088 356.64L61.7383 355.515C57.142 349.678 48.6493 348.668 42.8126 353.265Z" fill="#F76457"/>
<path d="M28.3231 334.865C12.3375 347.453 9.56847 370.699 22.1616 386.69L26.0765 383.608C15.1882 369.781 17.5782 349.678 31.4107 338.786C45.2373 327.897 65.3458 330.283 76.234 344.109L80.1489 341.026C67.5557 325.035 44.3088 322.276 28.3231 334.865Z" fill="#F76457"/>
<path d="M15.1692 392.187C-0.44957 372.341 2.98504 343.498 22.8203 327.878C42.6615 312.253 71.5053 315.688 87.1253 335.523L87.1549 335.499C86.9622 335.267 86.7682 335.045 86.5813 334.808L92.1748 330.403C73.9951 308.086 41.0923 304.378 18.3921 322.254C-4.3081 340.131 -8.41252 372.981 9.01391 395.891L14.6252 391.472C14.812 391.709 14.9883 391.945 15.1692 392.187Z" fill="#F76457"/>
<path d="M-12.2716 442.886C-1.98622 434.786 -0.207597 419.826 -8.31187 409.535L-10.8328 411.52C-3.82624 420.417 -5.35938 433.358 -14.2568 440.365C-23.1542 447.371 -36.1 445.832 -43.1066 436.935L-45.6275 438.92C-37.5279 449.206 -22.5629 450.99 -12.2716 442.886Z" fill="#F76457"/>
<path d="M-7.21764 449.305C-21.0442 460.193 -41.1527 457.808 -52.0456 443.975L-55.9605 447.058C-43.372 463.044 -20.1263 465.813 -4.13473 453.219C11.8509 440.631 14.6199 417.385 2.02678 401.394L-1.88809 404.477C8.9942 418.308 6.60889 438.416 -7.21764 449.305Z" fill="#F76457"/>
<path d="M-67.9916 457.675C-49.8072 479.998 -16.9044 483.706 5.79575 465.83C28.496 447.954 32.5944 415.108 15.1693 392.187C14.9884 391.945 14.8181 391.705 14.6312 391.467L9.01994 395.886L9.00809 395.896C24.6328 415.737 21.1981 444.581 1.36883 460.196C-18.4723 475.821 -47.3162 472.386 -62.9362 452.551L-62.9658 452.574L-68.5534 456.974C-68.3784 457.221 -68.1844 457.443 -67.9916 457.675Z" fill="#F76457"/>
<path d="M191.606 223.022C181.321 231.121 179.542 246.082 187.642 256.367L190.163 254.382C183.156 245.485 184.694 232.549 193.592 225.543C202.489 218.536 215.43 220.069 222.437 228.967L224.958 226.982C216.858 216.696 201.898 214.918 191.606 223.022Z" fill="#F76457"/>
<path d="M197.959 231.089C192.123 235.685 191.113 244.178 195.709 250.014L197.139 248.889C193.164 243.841 194.031 236.498 199.085 232.518C204.139 228.538 211.476 229.411 215.455 234.464L216.885 233.339C212.289 227.502 203.802 226.488 197.959 231.089Z" fill="#F76457"/>
<path d="M183.47 212.689C167.484 225.277 164.715 248.523 177.308 264.515L181.235 261.422C170.347 247.596 172.737 227.493 186.563 216.605C200.39 205.717 220.498 208.102 231.386 221.929L235.301 218.846C222.702 202.859 199.461 200.096 183.47 212.689Z" fill="#F76457"/>
<path d="M170.316 270.011L170.328 270.002C154.703 250.161 158.138 221.317 177.967 205.701C197.808 190.077 226.652 193.511 242.272 213.347L242.302 213.323C242.109 213.091 241.915 212.869 241.728 212.631L247.316 208.231C229.136 185.914 196.233 182.207 173.533 200.083C150.833 217.959 146.734 250.805 164.155 273.719L169.766 269.301C169.965 269.529 170.135 269.769 170.316 270.011Z" fill="#F76457"/>
<path d="M142.875 320.71C153.16 312.61 154.945 297.645 146.841 287.354L144.314 289.344C151.32 298.241 149.787 311.182 140.89 318.189C131.992 325.195 119.053 323.652 112.046 314.754L109.519 316.744C117.625 327.025 132.59 328.809 142.875 320.71Z" fill="#F76457"/>
<path d="M136.517 312.638C142.354 308.041 143.364 299.549 138.767 293.712L137.338 294.838C141.318 299.891 140.445 307.228 135.392 311.208C130.338 315.188 123.001 314.316 119.021 309.262L117.592 310.388C122.188 316.224 130.681 317.234 136.517 312.638Z" fill="#F76457"/>
<path d="M147.929 327.129C134.102 338.017 113.994 335.631 103.101 321.799L99.1862 324.882C111.775 340.868 135.02 343.637 151.012 331.043C166.998 318.455 169.767 295.209 157.173 279.218L153.259 282.301C164.147 296.127 161.756 316.24 147.929 327.129Z" fill="#F76457"/>
<path d="M87.1551 335.499C105.339 357.822 138.242 361.53 160.942 343.654C183.643 325.778 187.747 292.927 170.316 270.011C170.135 269.769 169.965 269.529 169.778 269.291L164.167 273.71C179.791 293.551 176.351 322.4 156.516 338.02C136.674 353.645 107.831 350.21 92.2105 330.375L92.1809 330.398L86.5933 334.798C86.7683 335.045 86.9623 335.267 87.1551 335.499Z" fill="#F76457"/>
<path d="M348.743 103.373C357.64 96.3661 370.582 97.8992 377.588 106.797L380.109 104.811C372.009 94.526 357.049 92.7474 346.758 100.852C336.472 108.951 334.694 123.912 342.793 134.197L345.32 132.207C338.309 123.304 339.852 110.375 348.743 103.373Z" fill="#F76457"/>
<path d="M338.616 90.5128C322.637 103.097 319.862 126.347 332.455 142.339L336.382 139.246C325.493 125.42 327.883 105.317 341.71 94.4289C355.532 83.5348 375.634 85.9247 386.523 99.7513L375.083 85.2248C363.258 80.5448 349.317 82.0862 338.616 90.5128Z" fill="#F76457"/>
<path d="M319.313 151.534L324.925 147.115C325.112 147.352 325.282 147.593 325.463 147.835L325.475 147.826C309.85 127.985 313.285 99.1407 333.114 83.5254C342.859 75.8508 354.778 72.7787 366.236 73.9904L360.411 66.5936C349.269 66.7958 338.104 70.4952 328.69 77.9081C305.99 95.7842 301.892 128.63 319.313 151.534Z" fill="#F76457"/>
<path d="M298.021 198.534C308.306 190.435 310.085 175.474 301.981 165.183L299.454 167.173C306.461 176.07 304.927 189.011 296.03 196.018C287.133 203.025 274.193 201.481 267.186 192.583L264.659 194.573C272.771 204.849 287.736 206.634 298.021 198.534Z" fill="#F76457"/>
<path d="M291.664 190.461C297.501 185.865 298.511 177.372 293.914 171.536L292.485 172.662C296.464 177.715 295.592 185.052 290.538 189.032C285.485 193.012 278.148 192.139 274.168 187.086L272.738 188.211C277.335 194.048 285.827 195.058 291.664 190.461Z" fill="#F76457"/>
<path d="M303.076 204.952C289.249 215.841 269.141 213.455 258.248 199.623L254.333 202.706C266.921 218.691 290.167 221.46 306.159 208.867C322.15 196.274 324.913 173.033 312.32 157.042L308.405 160.124C319.294 173.951 316.902 194.064 303.076 204.952Z" fill="#F76457"/>
<path d="M242.308 213.319C260.492 235.642 293.395 239.349 316.095 221.473C338.795 203.597 342.9 170.747 325.468 147.831C325.288 147.589 325.117 147.348 324.93 147.111L319.319 151.53L319.313 151.534C334.938 171.375 331.503 200.219 311.668 215.839C291.833 231.459 262.983 228.029 247.363 208.194L247.333 208.217L241.746 212.618C241.921 212.864 242.109 213.091 242.308 213.319Z" fill="#F76457"/>
<path d="M-17.3881 276.819C-27.6734 284.919 -29.458 299.883 -21.3537 310.175L-18.8269 308.185C-25.8334 299.288 -24.3003 286.346 -15.4029 279.34C-6.5055 272.333 6.43441 273.877 13.441 282.774L15.9678 280.785C7.8623 270.504 -7.10268 268.719 -17.3881 276.819Z" fill="#F76457"/>
<path d="M-11.0304 284.892C-16.8671 289.488 -17.8768 297.981 -13.2805 303.817L-11.851 302.692C-15.8307 297.638 -14.9584 290.301 -9.90472 286.321C-4.85101 282.341 2.48603 283.214 6.46577 288.267L7.89526 287.142C3.29895 281.305 -5.19375 280.295 -11.0304 284.892Z" fill="#F76457"/>
<path d="M-25.5246 266.486C-41.5102 279.074 -44.2793 302.32 -31.6861 318.311L-27.7712 315.228C-38.6595 301.402 -36.2741 281.293 -22.4417 270.4C-8.61513 259.512 11.4934 261.898 22.3863 275.73L26.3011 272.647C13.7127 256.661 -9.53894 253.897 -25.5246 266.486Z" fill="#F76457"/>
<path d="M-38.6739 323.814C-54.2926 303.968 -50.858 275.124 -31.0227 259.504C-11.1816 243.88 17.6623 247.314 33.2823 267.15L33.3119 267.126C33.1192 266.894 32.9251 266.672 32.7383 266.434L38.3318 262.03C20.1567 239.719 -12.7461 236.011 -35.4463 253.887C-58.1464 271.763 -62.2509 304.614 -44.8291 327.518L-39.2178 323.099C-39.031 323.336 -38.8548 323.572 -38.6739 323.814Z" fill="#F76457"/>
<path d="M137.759 154.643C127.473 162.742 125.695 177.703 133.799 187.994L136.32 186.009C129.313 177.111 130.847 164.17 139.744 157.164C148.641 150.157 161.587 151.696 168.594 160.594L171.115 158.608C163.015 148.323 148.05 146.538 137.759 154.643Z" fill="#F76457"/>
<path d="M144.116 162.715C138.28 167.312 137.27 175.804 141.866 181.641L143.296 180.515C139.316 175.462 140.188 168.125 145.242 164.145C150.296 160.165 157.633 161.037 161.612 166.091L163.042 164.965C158.446 159.129 149.959 158.114 144.116 162.715Z" fill="#F76457"/>
<path d="M129.622 144.31C113.636 156.898 110.867 180.144 123.461 196.135L127.387 193.043C116.499 179.217 118.884 159.108 132.711 148.22C146.537 137.332 166.646 139.717 177.539 153.549L181.454 150.467C168.859 134.486 145.614 131.717 129.622 144.31Z" fill="#F76457"/>
<path d="M116.473 201.638L116.485 201.629C100.86 181.787 104.295 152.944 124.124 137.328C143.965 121.704 172.809 125.138 188.429 144.973L188.459 144.95C188.266 144.717 188.072 144.495 187.885 144.258L193.473 139.858C175.298 117.547 142.395 113.839 119.695 131.716C96.9945 149.592 92.8901 182.442 110.312 205.346L115.923 200.927C116.122 201.155 116.292 201.396 116.473 201.638Z" fill="#F76457"/>
<path d="M89.0274 252.331C99.3128 244.231 101.097 229.266 92.9931 218.975L90.4662 220.965C97.4728 229.862 95.9396 242.803 87.0422 249.81C78.1448 256.816 65.2049 255.273 58.1983 246.375L55.6715 248.365C63.7817 258.652 78.742 260.43 89.0274 252.331Z" fill="#F76457"/>
<path d="M82.6742 244.264C88.5109 239.668 89.5206 231.175 84.9243 225.339L83.4948 226.464C87.4745 231.518 86.6022 238.855 81.5485 242.835C76.4948 246.814 69.1577 245.942 65.178 240.888L63.7485 242.014C68.3448 247.851 76.8375 248.861 82.6742 244.264Z" fill="#F76457"/>
<path d="M97.1637 262.664C113.149 250.075 115.918 226.829 103.325 210.838L99.4104 213.921C110.299 227.747 107.913 247.856 94.0808 258.749C80.2543 269.637 60.1457 267.252 49.2528 253.419L45.338 256.502C57.9312 272.494 81.1781 275.252 97.1637 262.664Z" fill="#F76457"/>
<path d="M33.3121 267.126C51.4918 289.443 84.3946 293.151 107.095 275.275C129.795 257.398 133.899 224.548 116.473 201.638C116.292 201.396 116.122 201.155 115.935 200.918L110.324 205.337C125.948 225.178 122.512 254.033 102.677 269.653C82.8361 285.277 53.9922 281.843 38.3675 262.002L38.3379 262.025L32.7503 266.425C32.9253 266.672 33.1193 266.894 33.3121 267.126Z" fill="#F76457"/>
<path d="M244.173 130.155C254.459 122.055 256.237 107.095 248.133 96.8038L245.606 98.7937C252.613 107.691 251.08 120.632 242.182 127.639C233.285 134.645 220.345 133.102 213.338 124.204L210.812 126.194C218.928 136.476 233.888 138.255 244.173 130.155Z" fill="#F76457"/>
<path d="M237.821 122.088C243.658 117.492 244.667 108.999 240.071 103.162L238.642 104.288C242.621 109.342 241.749 116.679 236.695 120.659C231.642 124.638 224.305 123.766 220.325 118.712L218.895 119.838C223.492 125.675 231.984 126.684 237.821 122.088Z" fill="#F76457"/>
<path d="M252.31 140.488C268.296 127.899 271.065 104.653 258.472 88.6618L254.557 91.7447C265.445 105.571 263.054 125.684 249.234 136.568C235.407 147.456 215.298 145.071 204.406 131.238L200.491 134.321C213.084 150.313 236.325 153.076 252.31 140.488Z" fill="#F76457"/>
<path d="M188.465 144.946C206.644 167.263 239.547 170.97 262.247 153.094C284.948 135.218 289.052 102.368 271.625 79.4575C271.445 79.2156 271.274 78.9749 271.087 78.7377L265.476 83.1565L265.47 83.1612C281.095 103.002 277.665 131.852 257.83 147.472C237.995 163.092 209.145 159.662 193.52 139.821L193.49 139.844L187.903 144.245C188.078 144.491 188.266 144.718 188.465 144.946Z" fill="#F76457"/>
<path d="M35.1785 183.951C41.1457 179.252 44.2357 172.254 44.2204 165.193L40.8572 167.842C40.2102 173.012 37.6124 177.951 33.1993 181.426C28.7862 184.901 23.3764 186.269 18.1926 185.69L14.8353 188.334C21.6838 190.014 29.2113 188.65 35.1785 183.951Z" fill="#F76457"/>
<path d="M43.3203 194.29C55.2369 184.906 59.7973 169.61 56.143 155.805L51.807 159.219C53.9897 170.57 49.9296 182.743 40.2374 190.375C30.5392 198.013 17.7596 199.101 7.23702 194.318L2.90101 197.732C15.4646 204.521 31.4037 203.674 43.3203 194.29Z" fill="#F76457"/>
<path d="M53.2471 206.894C72.2045 191.966 78.1829 166.596 69.4958 145.29L63.6117 149.923C70.0083 167.931 64.6491 188.815 48.8236 201.277C32.9981 213.74 11.4385 214.063 -4.56603 203.612L-10.4502 208.246C8.22573 221.687 34.2897 221.823 53.2471 206.894Z" fill="#F76457"/>
</g>
</g>
<defs>
<clipPath id="clip0_74_21070">
<rect width="755" height="755" fill="white" transform="translate(720.632 593.527) rotate(141.78)"/>
</clipPath>
</defs>
</svg>
