<svg width="600" height="1032" viewBox="0 0 600 1032" fill="none" xmlns="http://www.w3.org/2000/svg">
<g style="mix-blend-mode:hard-light" opacity="0.3" clip-path="url(#clip0_76_21959)">
<mask id="mask0_76_21959" style="mask-type:alpha" maskUnits="userSpaceOnUse" x="278" y="111" width="385" height="783">
<path d="M342.879 650.115C372.551 698.238 402.214 746.373 431.886 794.496C462.838 844.706 507.917 901.887 566.162 892.606C600.569 887.122 627.385 857.905 640.005 825.427C652.614 792.95 653.571 757.288 654.369 722.459C656.917 611.21 659.454 499.963 662 388.703C663.513 322.713 664.322 253.54 634.089 194.858C603.857 136.186 531.552 93.5202 470.778 119.277C437.122 133.542 414.173 164.851 394.687 195.775C348.97 268.323 310.353 348.279 286.559 430.858C261.23 518.776 295.889 573.88 342.879 650.115Z" fill="#B49180"/>
</mask>
<g mask="url(#mask0_76_21959)">
<path d="M509.582 911.554C488.705 923.654 479.194 947.927 484.789 970.244L491.269 966.489C487.482 947.758 495.739 927.841 513.168 917.741C530.596 907.64 551.985 910.367 566.351 922.975L572.831 919.22C556.243 903.275 530.46 899.455 509.582 911.554Z" fill="#F76457"/>
<path d="M480.584 861.517C469.257 868.082 465.375 882.644 471.943 893.978L474.726 892.365C469.047 882.566 472.394 869.972 482.193 864.293C491.991 858.615 504.583 861.972 510.262 871.771L513.044 870.158C506.469 858.828 491.911 854.953 480.584 861.517Z" fill="#F76457"/>
<path d="M485.733 870.401C479.305 874.126 477.105 882.391 480.83 888.819L482.404 887.906C479.179 882.341 481.079 875.201 486.645 871.975C492.211 868.75 499.351 870.65 502.576 876.216L504.15 875.304C500.425 868.876 492.16 866.676 485.733 870.401Z" fill="#F76457"/>
<path d="M473.99 850.138C456.385 860.34 450.358 882.961 460.564 900.572L464.876 898.073C456.051 882.847 461.255 863.277 476.488 854.449C491.715 845.624 511.278 850.832 520.106 866.065L524.417 863.567C514.211 845.956 491.594 839.935 473.99 850.138Z" fill="#F76457"/>
<path d="M452.859 905.029C440.202 883.175 447.679 855.106 469.523 842.446C491.374 829.783 519.443 837.26 532.102 859.104L532.135 859.085C531.977 858.828 531.816 858.581 531.665 858.319L537.818 854.753C522.975 830.091 490.927 821.77 465.928 836.258C440.929 850.746 432.222 882.686 446.235 907.829L452.428 904.24C452.579 904.502 452.707 904.768 452.859 905.029Z" fill="#F76457"/>
<path d="M623.724 806.006C611.067 784.152 618.544 756.083 640.388 743.424C662.239 730.76 690.307 738.238 702.967 760.082L703 760.063C702.842 759.805 702.681 759.558 702.529 759.297L708.689 755.727C693.847 731.064 661.798 722.743 636.799 737.231C611.8 751.719 603.094 783.659 617.107 808.802L623.286 805.221C623.438 805.482 623.579 805.741 623.724 806.006Z" fill="#F76457"/>
<path d="M589.392 852.317C600.719 845.752 604.595 831.194 598.026 819.86L595.25 821.469C600.929 831.268 597.582 843.862 587.783 849.541C577.985 855.219 565.387 851.866 559.708 842.067L556.932 843.676C563.496 855.003 578.059 858.885 589.392 852.317Z" fill="#F76457"/>
<path d="M584.239 843.427C590.667 839.702 592.867 831.437 589.142 825.009L587.568 825.922C590.793 831.487 588.892 838.627 583.327 841.853C577.761 845.078 570.621 843.178 567.396 837.612L565.822 838.524C569.547 844.952 577.805 847.156 584.239 843.427Z" fill="#F76457"/>
<path d="M593.488 859.385C578.261 868.21 558.692 863.006 549.864 847.773L545.552 850.271C555.755 867.876 578.376 873.903 595.987 863.697C613.591 853.494 619.618 830.873 609.412 813.262L605.101 815.761C613.919 830.991 608.715 850.561 593.488 859.385Z" fill="#F76457"/>
<path d="M532.141 859.082C546.984 883.745 579.032 892.066 604.031 877.578C629.03 863.09 637.731 831.154 623.724 806.006C623.579 805.741 623.444 805.479 623.293 805.218L617.113 808.799L617.1 808.807C629.764 830.657 622.286 858.726 600.449 871.382C578.598 884.045 550.53 876.568 537.87 854.724L537.838 854.743L531.684 858.309C531.823 858.578 531.983 858.825 532.141 859.082Z" fill="#F76457"/>
<path d="M436.942 786.213C425.615 792.777 421.733 807.34 428.294 818.66L431.076 817.047C425.402 807.255 428.749 794.661 438.547 788.982C448.345 783.304 460.937 786.661 466.612 796.453L469.395 794.84C462.831 783.53 448.269 779.648 436.942 786.213Z" fill="#F76457"/>
<path d="M442.091 795.097C435.663 798.822 433.463 807.087 437.189 813.515L438.763 812.602C435.541 807.043 437.438 799.897 443.004 796.671C448.569 793.446 455.713 795.353 458.935 800.912L460.509 800C456.784 793.572 448.519 791.372 442.091 795.097Z" fill="#F76457"/>
<path d="M430.344 774.827C412.74 785.03 406.716 807.657 416.919 825.262L421.23 822.763C412.41 807.543 417.617 787.98 432.85 779.152C448.077 770.327 467.64 775.535 476.461 790.755L480.772 788.256C470.573 770.658 447.949 764.625 430.344 774.827Z" fill="#F76457"/>
<path d="M409.217 829.725C396.564 807.877 404.042 779.809 425.886 767.149C447.736 754.486 475.805 761.963 488.461 783.801L488.493 783.782C488.339 783.531 488.178 783.284 488.027 783.022L494.18 779.456C479.334 754.787 447.286 746.466 422.286 760.954C397.287 775.442 388.581 807.382 402.598 832.532L408.79 828.943C408.942 829.204 409.07 829.47 409.217 829.725Z" fill="#F76457"/>
<path d="M373.279 873.249C363.481 878.928 350.886 875.581 345.208 865.783L342.432 867.391C348.996 878.718 363.558 882.6 374.892 876.032C386.219 869.468 390.094 854.909 383.526 843.576L380.75 845.184C386.426 854.993 383.078 867.571 373.279 873.249Z" fill="#F76457"/>
<path d="M369.743 867.149C376.17 863.424 378.37 855.159 374.645 848.731L373.071 849.643C376.293 855.202 374.389 862.353 368.83 865.574C363.265 868.8 356.125 866.899 352.899 861.334L351.325 862.246C355.044 868.678 363.308 870.878 369.743 867.149Z" fill="#F76457"/>
<path d="M381.486 887.411C399.084 877.213 405.117 854.588 394.911 836.977L390.593 839.479C399.418 854.706 394.214 874.276 378.987 883.1C363.761 891.925 344.187 886.714 335.363 871.488L344.634 887.485C355.683 893.796 369.702 894.241 381.486 887.411Z" fill="#F76457"/>
<path d="M409.217 829.725C409.069 829.47 408.941 829.204 408.79 828.942L402.61 832.524L402.597 832.531C415.26 854.382 407.783 882.451 385.946 895.106C375.213 901.326 362.982 902.672 351.808 899.864L356.529 908.009C367.594 909.38 379.164 907.3 389.531 901.292C414.534 886.811 423.23 854.868 409.217 829.725Z" fill="#F76457"/>
<path d="M607.8 687.193C596.473 693.758 592.591 708.32 599.152 719.641L601.935 718.028C596.26 708.236 599.607 695.642 609.406 689.963C619.204 684.284 631.796 687.642 637.471 697.434L640.253 695.821C633.69 684.511 619.127 680.629 607.8 687.193Z" fill="#F76457"/>
<path d="M601.203 675.808C583.598 686.011 577.575 708.638 587.778 726.242L592.089 723.744C583.268 708.524 588.476 688.961 603.709 680.132C618.936 671.308 638.505 676.512 647.326 691.732L651.637 689.233C641.439 671.635 618.807 665.606 601.203 675.808Z" fill="#F76457"/>
<path d="M580.082 730.702C567.429 708.854 574.907 680.786 596.75 668.126C618.601 655.463 646.67 662.94 659.325 684.778L659.358 684.759C659.204 684.508 659.043 684.261 658.892 683.999L665.052 680.429C650.205 655.76 618.157 647.439 593.158 661.927C568.159 676.415 559.452 708.355 573.469 733.505L579.649 729.924C579.8 730.185 579.941 730.444 580.082 730.702Z" fill="#F76457"/>
<path d="M545.751 777.013C557.078 770.448 560.953 755.89 554.385 744.556L551.609 746.165C557.287 755.964 553.936 768.552 544.138 774.23C534.339 779.909 521.745 776.562 516.066 766.763L513.29 768.372C519.858 779.706 534.417 783.581 545.751 777.013Z" fill="#F76457"/>
<path d="M540.601 768.129C547.029 764.404 549.229 756.14 545.504 749.712L543.93 750.624C547.151 756.183 545.255 763.33 539.689 766.555C534.123 769.781 526.983 767.88 523.758 762.314L522.184 763.227C525.909 769.655 534.167 771.858 540.601 768.129Z" fill="#F76457"/>
<path d="M549.846 784.081C534.619 792.905 515.046 787.695 506.222 772.468L501.91 774.967C512.113 792.571 534.734 798.598 552.345 788.392C569.949 778.19 575.976 755.569 565.77 737.958L561.459 740.456C570.28 755.693 565.073 775.256 549.846 784.081Z" fill="#F76457"/>
<path d="M488.499 783.777C503.345 808.446 535.394 816.767 560.393 802.279C585.392 787.792 594.099 755.851 580.082 730.701C579.941 730.443 579.806 730.181 579.655 729.919L573.475 733.501L573.462 733.508C586.125 755.359 578.648 783.427 556.811 796.083C534.96 808.746 506.891 801.269 494.232 779.425L494.199 779.444L488.046 783.01C488.184 783.279 488.345 783.526 488.499 783.777Z" fill="#F76457"/>
<path d="M393.304 710.915C381.977 717.479 378.091 732.035 384.659 743.369L387.442 741.756C381.764 731.958 385.114 719.37 394.913 713.691C404.711 708.013 417.299 711.363 422.978 721.162L425.761 719.549C419.186 708.219 404.631 704.351 393.304 710.915Z" fill="#F76457"/>
<path d="M398.449 719.792C392.021 723.517 389.821 731.782 393.546 738.21L395.121 737.297C391.895 731.732 393.796 724.592 399.361 721.366C404.927 718.141 412.067 720.042 415.292 725.607L416.867 724.695C413.141 718.267 404.877 716.067 398.449 719.792Z" fill="#F76457"/>
<path d="M386.706 699.529C369.101 709.731 363.074 732.352 373.281 749.963L377.592 747.465C368.767 732.238 373.975 712.675 389.208 703.847C404.435 695.022 423.998 700.23 432.822 715.457L437.134 712.958C426.927 695.347 404.31 689.326 386.706 699.529Z" fill="#F76457"/>
<path d="M365.579 754.427C352.926 732.579 360.399 704.504 382.243 691.844C404.094 679.181 432.163 686.658 444.822 708.502L444.855 708.483C444.701 708.232 444.54 707.985 444.389 707.724L450.542 704.158C435.695 679.489 403.647 671.168 378.648 685.655C353.649 700.143 344.942 732.084 358.959 757.234L365.152 753.645C365.299 753.899 365.431 754.172 365.579 754.427Z" fill="#F76457"/>
<path d="M329.641 797.951C319.842 803.63 307.248 800.283 301.569 790.484L298.793 792.093C305.358 803.42 319.916 807.296 331.25 800.727C342.577 794.163 346.456 779.611 339.888 768.277L337.112 769.886C342.784 779.688 339.439 792.273 329.641 797.951Z" fill="#F76457"/>
<path d="M326.104 791.85C332.532 788.125 334.732 779.861 331.007 773.433L329.433 774.345C332.654 779.904 330.751 787.054 325.192 790.276C319.626 793.502 312.483 791.594 309.261 786.035L307.687 786.948C311.405 793.379 319.67 795.579 326.104 791.85Z" fill="#F76457"/>
<path d="M337.848 812.114C355.446 801.915 361.476 779.284 351.273 761.679L346.955 764.182C355.78 779.408 350.572 798.971 335.346 807.796C320.119 816.62 300.549 811.417 291.725 796.19L300.992 812.181C312.045 818.499 326.064 818.943 337.848 812.114Z" fill="#F76457"/>
<path d="M365.579 754.427C365.431 754.172 365.303 753.906 365.152 753.645L358.972 757.226L358.959 757.234C371.618 779.078 364.145 807.153 342.308 819.809C331.575 826.028 319.348 827.381 308.17 824.566L312.895 832.718C323.96 834.089 335.53 832.009 345.896 826.001C370.892 811.507 379.592 779.57 365.579 754.427Z" fill="#F76457"/>
<path d="M564.162 611.896C552.835 618.46 548.95 633.016 555.518 644.35L558.301 642.737C552.622 632.938 555.973 620.351 565.771 614.672C575.57 608.993 588.158 612.344 593.836 622.143L596.619 620.53C590.044 609.2 575.489 605.331 564.162 611.896Z" fill="#F76457"/>
<path d="M569.308 620.773C562.88 624.498 560.68 632.763 564.405 639.191L565.979 638.278C562.754 632.713 564.654 625.573 570.22 622.347C575.786 619.122 582.926 621.022 586.151 626.588L587.725 625.676C584 619.248 575.735 617.048 569.308 620.773Z" fill="#F76457"/>
<path d="M557.565 600.51C539.96 610.712 533.933 633.333 544.139 650.944L548.451 648.446C539.626 633.219 544.834 613.656 560.067 604.828C575.294 596.003 594.863 601.207 603.688 616.434L607.999 613.935C597.793 596.324 575.169 590.307 557.565 600.51Z" fill="#F76457"/>
<path d="M536.444 655.404C523.791 633.556 531.264 605.481 553.108 592.821C574.959 580.158 603.028 587.635 615.687 609.479L615.72 609.46C615.566 609.209 615.405 608.962 615.253 608.701L621.413 605.131C606.567 580.462 574.519 572.141 549.519 586.629C524.52 601.117 515.814 633.057 529.831 658.207L536.01 654.626C536.158 654.88 536.303 655.145 536.444 655.404Z" fill="#F76457"/>
<path d="M502.109 701.708C513.436 695.144 517.315 680.591 510.746 669.258L507.97 670.867C513.649 680.665 510.298 693.253 500.5 698.932C490.701 704.61 478.107 701.263 472.428 691.465L469.652 693.074C476.22 704.407 490.775 708.276 502.109 701.708Z" fill="#F76457"/>
<path d="M496.963 692.831C503.391 689.106 505.591 680.841 501.866 674.413L500.291 675.326C503.513 680.885 501.616 688.031 496.051 691.257C490.485 694.482 483.341 692.575 480.12 687.016L478.545 687.928C482.27 694.356 490.529 696.56 496.963 692.831Z" fill="#F76457"/>
<path d="M506.204 708.776C490.978 717.601 471.408 712.397 462.584 697.17L458.272 699.669C468.471 717.267 491.096 723.301 508.707 713.094C526.311 702.892 532.334 680.264 522.132 662.66L517.821 665.158C526.639 680.389 521.431 699.952 506.204 708.776Z" fill="#F76457"/>
<path d="M444.861 708.48C459.704 733.143 491.752 741.464 516.751 726.976C541.75 712.488 550.451 680.551 536.444 655.404C536.303 655.146 536.168 654.883 536.017 654.622L529.837 658.203L529.824 658.211C542.484 680.055 535.01 708.13 513.173 720.786C491.322 733.449 463.254 725.972 450.594 704.128L450.561 704.147L444.408 707.713C444.543 707.975 444.707 708.229 444.861 708.48Z" fill="#F76457"/>
<path d="M349.662 635.611C338.335 642.175 334.453 656.738 341.021 668.071L343.804 666.458C338.126 656.66 341.473 644.066 351.271 638.387C361.07 632.708 373.661 636.066 379.34 645.864L382.123 644.251C375.548 632.922 360.989 629.046 349.662 635.611Z" fill="#F76457"/>
<path d="M354.811 644.495C348.383 648.22 346.183 656.485 349.909 662.912L351.483 662C348.257 656.434 350.158 649.294 355.724 646.069C361.289 642.844 368.429 644.744 371.655 650.31L373.229 649.397C369.504 642.97 361.239 640.77 354.811 644.495Z" fill="#F76457"/>
<path d="M343.068 624.231C325.463 634.434 319.436 657.055 329.643 674.666L333.954 672.167C325.129 656.94 330.333 637.371 345.567 628.543C360.793 619.718 380.356 624.926 389.185 640.159L393.496 637.66C383.29 620.049 360.672 614.029 343.068 624.231Z" fill="#F76457"/>
<path d="M321.937 679.123C309.281 657.268 316.758 629.2 338.602 616.54C360.452 603.877 388.521 611.354 401.181 633.198L401.213 633.179C401.055 632.922 400.895 632.675 400.743 632.413L406.897 628.847C392.054 604.185 360.006 595.863 335.006 610.351C310.007 624.839 301.301 656.78 315.314 681.923L321.506 678.334C321.658 678.595 321.786 678.861 321.937 679.123Z" fill="#F76457"/>
<path d="M286.003 722.654C276.205 728.332 263.606 724.979 257.928 715.18L255.152 716.789C261.716 728.116 276.278 731.998 287.612 725.43C298.939 718.865 302.814 704.307 296.246 692.973L293.47 694.582C299.142 704.384 295.801 716.975 286.003 722.654Z" fill="#F76457"/>
<path d="M282.459 716.54C288.887 712.815 291.087 704.55 287.362 698.122L285.787 699.035C289.013 704.6 287.106 711.744 281.547 714.966C275.981 718.191 268.841 716.291 265.616 710.725L264.041 711.637C267.76 718.069 276.025 720.269 282.459 716.54Z" fill="#F76457"/>
<path d="M294.206 736.81C311.804 726.611 317.838 703.986 307.632 686.375L303.314 688.878C312.138 704.104 306.931 723.667 291.704 732.492C276.477 741.316 256.908 736.113 248.083 720.886L257.355 736.884C268.403 743.195 282.422 743.639 294.206 736.81Z" fill="#F76457"/>
<path d="M321.937 679.123C321.786 678.862 321.658 678.596 321.506 678.334L315.327 681.916L315.314 681.923C327.977 703.774 320.5 731.843 298.662 744.498C287.93 750.718 275.703 752.071 264.525 749.256L269.249 757.408C280.315 758.779 291.884 756.699 302.251 750.691C327.254 736.209 335.95 704.267 321.937 679.123Z" fill="#F76457"/>
<path d="M520.521 536.592C509.194 543.156 505.312 557.719 511.88 569.052L514.663 567.439C508.984 557.641 512.331 545.046 522.13 539.368C531.928 533.689 544.52 537.047 550.198 546.845L552.981 545.232C546.406 533.903 531.848 530.027 520.521 536.592Z" fill="#F76457"/>
<path d="M525.67 545.475C519.242 549.201 517.042 557.465 520.767 563.893L522.341 562.981C519.116 557.415 521.017 550.275 526.582 547.05C532.148 543.824 539.288 545.725 542.513 551.29L544.087 550.378C540.362 543.95 532.098 541.75 525.67 545.475Z" fill="#F76457"/>
<path d="M513.927 525.212C496.322 535.414 490.295 558.035 500.501 575.646L504.813 573.148C495.988 557.921 501.192 538.352 516.425 529.523C531.652 520.699 551.221 525.902 560.05 541.136L564.361 538.637C554.155 521.026 531.531 515.009 513.927 525.212Z" fill="#F76457"/>
<path d="M492.802 580.1C480.146 558.246 487.623 530.177 509.467 517.517C531.317 504.854 559.386 512.331 572.045 534.175L572.078 534.156C571.92 533.899 571.759 533.652 571.608 533.39L577.768 529.82C562.925 505.158 530.877 496.837 505.878 511.325C480.879 525.813 472.172 557.753 486.185 582.896L492.365 579.315C492.516 579.576 492.657 579.835 492.802 580.1Z" fill="#F76457"/>
<path d="M458.471 626.41C469.798 619.846 473.673 605.287 467.105 593.954L464.329 595.563C470.007 605.361 466.66 617.956 456.862 623.634C447.063 629.313 434.465 625.959 428.786 616.161L426.01 617.77C432.575 629.097 447.137 632.979 458.471 626.41Z" fill="#F76457"/>
<path d="M453.318 617.521C459.746 613.796 461.945 605.531 458.22 599.103L456.646 600.016C459.872 605.581 457.971 612.721 452.405 615.947C446.84 619.172 439.7 617.271 436.474 611.706L434.9 612.618C438.625 619.046 446.883 621.25 453.318 617.521Z" fill="#F76457"/>
<path d="M462.566 633.479C447.34 642.304 427.77 637.1 418.946 621.873L414.634 624.372C424.837 641.976 447.458 648.003 465.069 637.797C482.673 627.594 488.7 604.973 478.494 587.362L474.183 589.861C482.997 605.085 477.793 624.654 462.566 633.479Z" fill="#F76457"/>
<path d="M401.22 633.176C416.062 657.838 448.114 666.166 473.113 651.678C498.113 637.19 506.815 605.243 492.802 580.1C492.657 579.835 492.523 579.572 492.371 579.311L486.192 582.892L486.179 582.9C498.842 604.751 491.365 632.819 469.527 645.475C447.677 658.138 419.608 650.661 406.949 628.817L406.916 628.836L400.763 632.402C400.901 632.671 401.062 632.918 401.22 633.176Z" fill="#F76457"/>
<path d="M629.329 527.391C640.656 520.827 644.538 506.264 637.97 494.931L635.187 496.544C640.866 506.342 637.519 518.937 627.72 524.615C617.922 530.294 605.33 526.936 599.652 517.138L596.869 518.751C603.44 530.074 618.002 533.956 629.329 527.391Z" fill="#F76457"/>
<path d="M633.425 534.46C618.198 543.284 598.629 538.081 589.804 522.854L585.493 525.352C595.695 542.957 618.316 548.984 635.927 538.778C653.532 528.575 659.559 505.954 649.353 488.343L645.041 490.842C653.862 506.062 648.652 525.635 633.425 534.46Z" fill="#F76457"/>
<path d="M572.078 534.156C586.921 558.819 618.973 567.147 643.972 552.659C668.971 538.171 677.674 506.224 663.661 481.081C663.516 480.816 663.381 480.553 663.23 480.292L657.05 483.873C669.714 505.724 662.23 533.796 640.386 546.456C618.535 559.119 590.467 551.642 577.807 529.798L577.775 529.817L571.621 533.383C571.759 533.652 571.92 533.899 572.078 534.156Z" fill="#F76457"/>
<path d="M306.021 560.307C294.694 566.871 290.812 581.434 297.38 592.767L300.163 591.155C294.484 581.356 297.831 568.762 307.63 563.083C317.428 557.405 330.02 560.762 335.698 570.56L338.481 568.948C331.91 557.624 317.348 553.742 306.021 560.307Z" fill="#F76457"/>
<path d="M311.173 569.197C304.746 572.922 302.545 581.187 306.271 587.615L307.845 586.702C304.62 581.137 306.52 573.997 312.086 570.771C317.651 567.546 324.791 569.447 328.017 575.012L329.591 574.1C325.866 567.672 317.601 565.472 311.173 569.197Z" fill="#F76457"/>
<path d="M299.426 548.927C281.822 559.13 275.795 581.751 286.001 599.362L290.312 596.863C281.488 581.636 286.695 562.073 301.929 553.245C317.156 544.421 336.718 549.628 345.543 564.855L349.854 562.356C339.652 544.752 317.031 538.725 299.426 548.927Z" fill="#F76457"/>
<path d="M278.299 603.825C265.643 581.971 273.12 553.902 294.964 541.243C316.814 528.579 344.883 536.057 357.543 557.901L357.575 557.882C357.417 557.624 357.257 557.377 357.105 557.116L363.259 553.55C348.412 528.88 316.364 520.559 291.365 535.047C266.366 549.535 257.659 581.475 271.676 606.625L277.869 603.036C278.02 603.298 278.148 603.564 278.299 603.825Z" fill="#F76457"/>
<path d="M250.564 661.505C268.162 651.306 274.196 628.682 263.99 611.071L259.672 613.573C268.496 628.8 263.293 648.369 248.066 657.194C232.839 666.018 213.27 660.815 204.441 645.581L213.712 661.579C224.761 667.89 238.78 668.335 250.564 661.505Z" fill="#F76457"/>
<path d="M278.299 603.825C278.148 603.564 278.02 603.298 277.868 603.036L271.689 606.618L271.676 606.625C284.339 628.476 276.862 656.544 255.024 669.2C244.292 675.42 232.065 676.773 220.887 673.957L225.607 682.103C236.673 683.474 248.242 681.394 258.609 675.386C283.608 660.898 292.308 628.962 278.299 603.825Z" fill="#F76457"/>
<path d="M476.879 461.288C465.552 467.852 461.67 482.415 468.238 493.748L471.021 492.135C465.343 482.337 468.69 469.742 478.488 464.064C488.287 458.385 500.878 461.743 506.557 471.541L509.34 469.928C502.769 458.605 488.206 454.723 476.879 461.288Z" fill="#F76457"/>
<path d="M482.032 470.178C475.604 473.903 473.404 482.168 477.129 488.596L478.704 487.683C475.478 482.118 477.379 474.978 482.944 471.752C488.51 468.527 495.65 470.427 498.875 475.993L500.45 475.081C496.724 468.653 488.46 466.453 482.032 470.178Z" fill="#F76457"/>
<path d="M470.285 449.908C452.68 460.111 446.653 482.732 456.86 500.343L461.171 497.844C452.347 482.617 457.554 463.054 472.787 454.226C488.014 445.401 507.584 450.605 516.408 465.832L520.719 463.333C510.517 445.729 487.89 439.706 470.285 449.908Z" fill="#F76457"/>
<path d="M449.164 504.802C436.508 482.948 443.985 454.879 465.829 442.22C487.679 429.557 515.748 437.034 528.408 458.878L528.44 458.859C528.282 458.601 528.122 458.354 527.97 458.093L534.13 454.523C519.284 429.854 487.235 421.533 462.236 436.021C437.237 450.509 428.53 482.449 442.547 507.599L448.727 504.017C448.878 504.279 449.019 504.537 449.164 504.802Z" fill="#F76457"/>
<path d="M414.829 551.107C426.156 544.542 430.031 529.983 423.463 518.65L420.687 520.259C426.366 530.057 423.015 542.645 413.216 548.324C403.418 554.002 390.823 550.655 385.145 540.857L382.369 542.466C388.937 553.799 403.496 557.675 414.829 551.107Z" fill="#F76457"/>
<path d="M409.68 542.223C416.108 538.498 418.308 530.233 414.582 523.806L413.008 524.718C416.234 530.283 414.333 537.423 408.767 540.649C403.202 543.874 396.062 541.974 392.836 536.408L391.262 537.321C394.987 543.748 403.246 545.952 409.68 542.223Z" fill="#F76457"/>
<path d="M418.925 558.174C403.698 566.999 384.128 561.795 375.3 546.562L370.989 549.061C381.191 566.665 403.812 572.692 421.423 562.486C439.028 552.283 445.055 529.662 434.848 512.051L430.537 514.55C439.359 529.787 434.151 549.35 418.925 558.174Z" fill="#F76457"/>
<path d="M357.581 557.878C372.424 582.54 404.472 590.861 429.471 576.373C454.471 561.885 463.171 529.949 449.164 504.802C449.019 504.537 448.885 504.274 448.733 504.013L442.554 507.594L442.541 507.602C455.204 529.453 447.727 557.521 425.889 570.177C404.039 582.84 375.97 575.363 363.31 553.519L363.278 553.538L357.124 557.104C357.263 557.373 357.423 557.62 357.581 557.878Z" fill="#F76457"/>
<path d="M620.023 405.783L620.036 405.775C607.373 383.925 614.85 355.856 636.688 343.2C658.538 330.537 686.607 338.014 699.266 359.858L699.299 359.839C699.141 359.582 698.98 359.335 698.829 359.073L704.982 355.507C690.136 330.838 658.088 322.517 633.089 337.005C608.089 351.493 599.389 383.429 613.4 408.583L619.579 405.002C619.744 405.256 619.878 405.518 620.023 405.783Z" fill="#F76457"/>
<path d="M585.688 452.087C597.015 445.523 600.897 430.96 594.328 419.627L591.546 421.24C597.224 431.038 593.873 443.626 584.075 449.304C574.276 454.983 561.688 451.632 556.01 441.834L553.227 443.447C559.802 454.776 574.361 458.652 585.688 452.087Z" fill="#F76457"/>
<path d="M580.538 443.204C586.966 439.479 589.166 431.214 585.441 424.786L583.867 425.699C587.092 431.264 585.192 438.404 579.626 441.63C574.061 444.855 566.921 442.954 563.695 437.389L562.121 438.301C565.846 444.729 574.111 446.929 580.538 443.204Z" fill="#F76457"/>
<path d="M589.783 459.155C574.556 467.98 554.987 462.776 546.159 447.543L541.847 450.041C552.05 467.646 574.671 473.673 592.282 463.467C609.886 453.264 615.913 430.643 605.707 413.032L601.396 415.531C610.224 430.764 605.01 450.331 589.783 459.155Z" fill="#F76457"/>
<path d="M528.44 458.858C543.283 483.521 575.331 491.842 600.33 477.354C625.329 462.866 634.036 430.926 620.023 405.783C619.878 405.517 619.743 405.255 619.592 404.994L613.412 408.575C626.075 430.426 618.592 458.498 596.748 471.158C574.897 483.821 546.828 476.344 534.169 454.5L534.136 454.519L527.983 458.085C528.121 458.354 528.282 458.601 528.44 458.858Z" fill="#F76457"/>
<path d="M262.382 485.009C251.055 491.573 247.17 506.129 253.738 517.463L256.521 515.85C250.842 506.051 254.193 493.463 263.991 487.785C273.79 482.106 286.378 485.457 292.056 495.256L294.839 493.643C288.264 482.313 273.709 478.444 262.382 485.009Z" fill="#F76457"/>
<path d="M267.528 493.886C261.1 497.611 258.9 505.876 262.625 512.304L264.199 511.391C260.978 505.832 262.874 498.686 268.44 495.46C274.005 492.235 281.149 494.142 284.371 499.701L285.945 498.789C282.22 492.361 273.955 490.161 267.528 493.886Z" fill="#F76457"/>
<path d="M255.784 473.622C238.18 483.825 232.153 506.446 242.359 524.057L246.67 521.558C237.846 506.332 243.053 486.769 258.287 477.94C273.513 469.116 293.076 474.323 301.901 489.55L306.212 487.052C296.006 469.44 273.389 463.42 255.784 473.622Z" fill="#F76457"/>
<path d="M234.657 528.52C222.001 506.666 229.482 478.604 251.326 465.944C273.176 453.281 301.241 460.752 313.901 482.596L313.933 482.577C313.779 482.326 313.615 482.072 313.467 481.817L319.62 478.251C304.774 453.582 272.726 445.261 247.726 459.749C222.727 474.237 214.021 506.177 228.038 531.327L234.23 527.738C234.374 527.986 234.51 528.266 234.657 528.52Z" fill="#F76457"/>
<path d="M433.241 385.989C421.914 392.554 418.028 407.11 424.596 418.443L427.379 416.831C421.701 407.032 425.051 394.444 434.85 388.766C444.648 383.087 457.236 386.438 462.915 396.236L465.698 394.624C459.123 383.294 444.568 379.425 433.241 385.989Z" fill="#F76457"/>
<path d="M438.386 394.867C431.958 398.592 429.758 406.857 433.483 413.284L435.058 412.372C431.836 406.813 433.733 399.666 439.298 396.441C444.864 393.216 452.008 395.123 455.23 400.682L456.804 399.769C453.079 393.342 444.814 391.142 438.386 394.867Z" fill="#F76457"/>
<path d="M426.643 374.603C409.038 384.806 403.011 407.427 413.218 425.038L417.529 422.539C408.704 407.312 413.912 387.749 429.145 378.921C444.372 370.097 463.942 375.3 472.766 390.527L477.077 388.029C466.871 370.418 444.247 364.401 426.643 374.603Z" fill="#F76457"/>
<path d="M405.522 429.498C392.866 407.643 400.347 379.581 422.191 366.922C444.041 354.258 472.106 361.729 484.765 383.573L484.798 383.554C484.644 383.303 484.479 383.049 484.332 382.795L490.492 379.225C475.645 354.556 443.597 346.234 418.598 360.722C393.599 375.21 384.892 407.151 398.909 432.3L405.089 428.719C405.232 428.967 405.381 429.239 405.522 429.498Z" fill="#F76457"/>
<path d="M371.187 475.802C382.514 469.237 386.393 454.685 379.825 443.352L377.049 444.961C382.727 454.759 379.377 467.347 369.578 473.026C359.78 478.704 347.185 475.357 341.507 465.559L338.73 467.168C345.299 478.501 359.854 482.37 371.187 475.802Z" fill="#F76457"/>
<path d="M366.042 466.926C372.47 463.2 374.67 454.936 370.945 448.508L369.37 449.42C372.592 454.979 370.695 462.126 365.13 465.351C359.564 468.577 352.42 466.67 349.199 461.111L347.624 462.023C351.349 468.451 359.608 470.655 366.042 466.926Z" fill="#F76457"/>
<path d="M375.283 482.87C360.056 491.695 340.487 486.491 331.662 471.264L327.351 473.763C337.553 491.367 360.174 497.394 377.785 487.188C395.39 476.986 401.417 454.365 391.211 436.754L386.899 439.252C395.717 454.483 390.51 474.046 375.283 482.87Z" fill="#F76457"/>
<path d="M313.94 482.573C328.786 507.242 360.834 515.564 385.834 501.076C410.833 486.588 419.539 454.647 405.522 429.498C405.381 429.239 405.243 428.97 405.095 428.715L398.916 432.297L398.903 432.304C411.562 454.148 404.089 482.224 382.251 494.879C360.401 507.542 332.332 500.065 319.672 478.221L319.64 478.24L313.486 481.806C313.617 482.062 313.785 482.322 313.94 482.573Z" fill="#F76457"/>
<path d="M604.1 286.97C592.773 293.535 588.893 308.087 595.462 319.42L598.238 317.811C592.559 308.013 595.91 295.425 605.709 289.746C615.507 284.068 628.102 287.415 633.78 297.213L636.556 295.604C629.988 284.271 615.433 280.402 604.1 286.97Z" fill="#F76457"/>
<path d="M609.245 295.848C602.817 299.573 600.617 307.837 604.342 314.265L605.916 313.353C602.695 307.794 604.592 300.647 610.157 297.422C615.723 294.196 622.866 296.103 626.088 301.662L627.662 300.75C623.937 294.322 615.679 292.119 609.245 295.848Z" fill="#F76457"/>
<path d="M597.501 275.584C579.897 285.787 573.87 308.408 584.076 326.019L588.4 323.512C579.576 308.286 584.783 288.723 600.01 279.898C615.237 271.074 634.806 276.277 643.631 291.504L647.942 289.006C637.729 271.398 615.112 265.378 597.501 275.584Z" fill="#F76457"/>
<path d="M576.381 330.478L576.394 330.471C563.731 308.62 571.212 280.558 593.049 267.902C614.9 255.239 642.965 262.71 655.624 284.554L655.657 284.535C655.503 284.284 655.338 284.03 655.191 283.775L661.344 280.209C646.498 255.54 614.449 247.219 589.45 261.707C564.451 276.195 555.745 308.135 569.761 333.285L575.941 329.704C576.098 329.944 576.24 330.22 576.381 330.478Z" fill="#F76457"/>
<path d="M542.046 376.783C553.373 370.218 557.258 355.662 550.69 344.329L547.907 345.941C553.586 355.74 550.235 368.328 540.437 374.006C530.638 379.685 518.05 376.334 512.372 366.536L509.589 368.149C516.164 379.478 530.719 383.347 542.046 376.783Z" fill="#F76457"/>
<path d="M536.901 367.906C543.328 364.181 545.528 355.916 541.803 349.489L540.229 350.401C543.451 355.96 541.554 363.107 535.988 366.332C530.423 369.557 523.279 367.65 520.057 362.091L518.483 363.004C522.208 369.431 530.473 371.631 536.901 367.906Z" fill="#F76457"/>
<path d="M546.141 383.851C530.915 392.676 511.345 387.472 502.521 372.245L498.209 374.744C508.412 392.348 531.033 398.375 548.644 388.169C566.248 377.967 572.275 355.346 562.069 337.735L557.758 340.233C566.582 355.46 561.368 375.027 546.141 383.851Z" fill="#F76457"/>
<path d="M484.798 383.554C499.645 408.223 531.693 416.544 556.692 402.056C581.691 387.568 590.398 355.628 576.381 330.478C576.24 330.22 576.102 329.951 575.954 329.696L569.774 333.277C582.434 355.121 574.954 383.201 553.11 395.86C531.259 408.523 503.191 401.046 490.531 379.202L490.498 379.221L484.345 382.787C484.476 383.043 484.644 383.303 484.798 383.554Z" fill="#F76457"/>
<path d="M389.599 310.685C378.272 317.25 374.39 331.812 380.955 343.139L383.738 341.527C378.059 331.728 381.41 319.14 391.208 313.462C401.007 307.783 413.595 311.134 419.273 320.932L422.056 319.32C415.485 307.996 400.926 304.121 389.599 310.685Z" fill="#F76457"/>
<path d="M394.748 319.569C388.32 323.294 386.12 331.559 389.846 337.987L391.42 337.074C388.198 331.515 390.095 324.369 395.661 321.143C401.226 317.918 408.366 319.819 411.592 325.384L413.166 324.472C409.441 318.044 401.176 315.844 394.748 319.569Z" fill="#F76457"/>
<path d="M383.005 299.306C365.401 309.508 359.374 332.129 369.58 349.74L373.891 347.242C365.067 332.015 370.274 312.452 385.507 303.624C400.734 294.799 420.304 300.003 429.128 315.23L433.44 312.731C423.233 295.12 400.61 289.103 383.005 299.306Z" fill="#F76457"/>
<path d="M361.881 354.193C349.224 332.339 356.701 304.27 378.545 291.611C400.396 278.948 428.464 286.425 441.124 308.269L441.157 308.25C440.999 307.992 440.838 307.745 440.686 307.484L446.846 303.914C432.004 279.251 399.955 270.93 374.956 285.418C349.957 299.906 341.251 331.846 355.264 356.99L361.443 353.409C361.595 353.67 361.736 353.928 361.881 354.193Z" fill="#F76457"/>
<path d="M327.549 400.504C338.876 393.94 342.752 379.381 336.183 368.048L333.407 369.657C339.086 379.455 335.739 392.049 325.94 397.728C316.142 403.407 303.543 400.053 297.865 390.255L295.089 391.864C301.653 403.191 316.216 407.072 327.549 400.504Z" fill="#F76457"/>
<path d="M322.396 391.614C328.824 387.889 331.024 379.625 327.299 373.197L325.725 374.109C328.95 379.675 327.049 386.815 321.484 390.04C315.918 393.266 308.778 391.365 305.553 385.799L303.979 386.712C307.704 393.14 315.962 395.343 322.396 391.614Z" fill="#F76457"/>
<path d="M331.645 407.573C316.418 416.397 296.849 411.194 288.02 395.96L283.709 398.459C293.912 416.064 316.533 422.091 334.144 411.884C351.748 401.682 357.775 379.061 347.569 361.45L343.258 363.948C352.076 379.179 346.872 398.748 331.645 407.573Z" fill="#F76457"/>
<path d="M270.298 407.269C285.144 431.938 317.193 440.26 342.192 425.772C367.191 411.284 375.891 379.347 361.881 354.194C361.736 353.929 361.601 353.666 361.45 353.405L355.27 356.986L355.257 356.994C367.92 378.844 360.443 406.913 338.606 419.569C316.755 432.232 288.686 424.755 276.027 402.911L275.994 402.93L269.841 406.496C269.979 406.765 270.14 407.012 270.298 407.269Z" fill="#F76457"/>
<path d="M560.458 211.666C549.131 218.23 545.256 232.789 551.82 244.116L554.596 242.507C548.918 232.709 552.268 220.121 562.067 214.442C571.865 208.764 584.46 212.111 590.138 221.909L592.915 220.3C586.35 208.973 571.792 205.098 560.458 211.666Z" fill="#F76457"/>
<path d="M565.607 220.55C559.179 224.275 556.979 232.54 560.704 238.968L562.278 238.055C559.057 232.496 560.954 225.35 566.519 222.124C572.085 218.899 579.225 220.799 582.45 226.365L584.024 225.453C580.299 219.025 572.041 216.821 565.607 220.55Z" fill="#F76457"/>
<path d="M553.864 200.287C536.259 210.489 530.232 233.11 540.438 250.721L544.763 248.215C535.938 232.988 541.146 213.425 556.372 204.601C571.599 195.776 591.169 200.98 599.993 216.207L604.305 213.708C594.092 196.101 571.475 190.08 553.864 200.287Z" fill="#F76457"/>
<path d="M532.739 255.174L532.753 255.166C520.089 233.316 527.567 205.247 549.404 192.592C571.254 179.928 599.323 187.406 611.983 209.25L612.015 209.231C611.857 208.973 611.697 208.726 611.545 208.465L617.699 204.898C602.856 180.236 570.808 171.915 545.809 186.403C520.809 200.891 512.109 232.827 526.116 257.974L532.295 254.393C532.46 254.647 532.595 254.909 532.739 255.174Z" fill="#F76457"/>
<path d="M498.408 301.485C509.735 294.921 513.617 280.358 507.048 269.025L504.266 270.637C509.944 280.436 506.597 293.03 496.799 298.709C487 304.387 474.409 301.03 468.73 291.232L465.947 292.844C472.518 304.167 487.081 308.049 498.408 301.485Z" fill="#F76457"/>
<path d="M493.255 292.595C499.683 288.87 501.883 280.605 498.157 274.178L496.583 275.09C499.809 280.655 497.908 287.795 492.342 291.021C486.777 294.246 479.637 292.346 476.411 286.78L474.837 287.693C478.562 294.12 486.827 296.32 493.255 292.595Z" fill="#F76457"/>
<path d="M502.504 308.554C487.277 317.378 467.707 312.174 458.879 296.941L454.568 299.44C464.77 317.044 487.391 323.071 505.002 312.865C522.607 302.662 528.634 280.042 518.427 262.431L514.116 264.929C522.941 280.156 517.73 299.729 502.504 308.554Z" fill="#F76457"/>
<path d="M441.157 308.25C456.003 332.919 488.051 341.24 513.051 326.752C538.05 312.264 546.756 280.324 532.739 255.174C532.594 254.909 532.46 254.647 532.308 254.386L526.129 257.967C538.792 279.817 531.308 307.89 509.464 320.549C487.614 333.213 459.545 325.735 446.886 303.891L446.853 303.91L440.7 307.477C440.838 307.745 440.999 307.993 441.157 308.25Z" fill="#F76457"/>
<path d="M345.958 235.381C334.631 241.946 330.749 256.508 337.317 267.842L340.1 266.229C334.421 256.431 337.768 243.836 347.567 238.158C357.365 232.479 369.957 235.836 375.635 245.635L378.418 244.022C371.847 232.699 357.285 228.817 345.958 235.381Z" fill="#F76457"/>
<path d="M351.11 244.272C344.683 247.997 342.483 256.262 346.208 262.689L347.782 261.777C344.557 256.211 346.457 249.071 352.023 245.846C357.588 242.621 364.728 244.521 367.954 250.087L369.528 249.174C365.803 242.747 357.538 240.547 351.11 244.272Z" fill="#F76457"/>
<path d="M339.363 224.002C321.759 234.204 315.732 256.825 325.938 274.436L330.25 271.938C321.425 256.711 326.629 237.142 341.862 228.313C357.089 219.489 376.658 224.692 385.487 239.926L389.798 237.427C379.595 219.823 356.968 213.799 339.363 224.002Z" fill="#F76457"/>
<path d="M318.243 278.896C305.586 257.042 313.063 228.973 334.907 216.314C356.758 203.65 384.827 211.128 397.486 232.972L397.519 232.953C397.361 232.695 397.2 232.448 397.049 232.187L403.209 228.617C388.37 203.961 356.321 195.64 331.322 210.128C306.323 224.615 297.617 256.556 311.626 281.693L317.805 278.111C317.957 278.373 318.098 278.631 318.243 278.896Z" fill="#F76457"/>
<path d="M283.908 325.2C295.234 318.636 299.11 304.077 292.542 292.744L289.765 294.353C295.444 304.151 292.097 316.745 282.299 322.424C272.5 328.103 259.902 324.749 254.223 314.951L251.447 316.56C258.015 327.893 272.574 331.768 283.908 325.2Z" fill="#F76457"/>
<path d="M278.758 316.317C285.186 312.592 287.386 304.327 283.661 297.899L282.087 298.812C285.312 304.377 283.411 311.517 277.846 314.743C272.28 317.968 265.14 316.067 261.915 310.502L260.341 311.414C264.066 317.842 272.324 320.046 278.758 316.317Z" fill="#F76457"/>
<path d="M290.502 336.579C308.106 326.377 314.133 303.756 303.927 286.145L299.615 288.644C308.44 303.87 303.236 323.44 288.003 332.268C272.776 341.093 253.207 335.889 244.378 320.656L240.067 323.154C250.273 340.765 272.891 346.786 290.502 336.579Z" fill="#F76457"/>
<path d="M226.66 331.972C241.503 356.635 273.551 364.956 298.55 350.468C323.549 335.98 332.256 304.04 318.243 278.896C318.098 278.631 317.963 278.369 317.812 278.107L311.632 281.689L311.619 281.696C324.283 303.547 316.809 331.622 294.972 344.278C273.121 356.941 245.052 349.464 232.389 327.613L232.357 327.632L226.203 331.198C226.342 331.467 226.502 331.714 226.66 331.972Z" fill="#F76457"/>
<path d="M516.816 136.362C505.489 142.927 501.614 157.485 508.182 168.819L510.958 167.21C505.28 157.411 508.627 144.817 518.425 139.138C528.224 133.46 540.822 136.813 546.501 146.612L549.277 145.003C542.712 133.676 528.15 129.794 516.816 136.362Z" fill="#F76457"/>
<path d="M521.969 145.252C515.541 148.978 513.341 157.242 517.066 163.67L518.641 162.758C515.415 157.192 517.316 150.052 522.881 146.827C528.447 143.601 535.587 145.502 538.812 151.067L540.387 150.155C536.662 143.727 528.403 141.523 521.969 145.252Z" fill="#F76457"/>
<path d="M510.222 124.983C492.617 135.185 486.59 157.806 496.797 175.417L501.121 172.911C492.297 157.684 497.5 138.115 512.727 129.29C527.954 120.466 547.523 125.669 556.352 140.903L560.663 138.404C550.454 120.803 527.833 114.776 510.222 124.983Z" fill="#F76457"/>
<path d="M489.102 179.877L489.115 179.869C476.452 158.019 483.929 129.95 505.766 117.294C527.617 104.631 555.685 112.108 568.345 133.952L568.378 133.933C568.22 133.676 568.059 133.429 567.908 133.167L574.061 129.601C559.222 104.945 527.174 96.6239 502.175 111.112C477.176 125.6 468.469 157.54 482.478 182.677L488.658 179.096C488.822 179.349 488.957 179.612 489.102 179.877Z" fill="#F76457"/>
<path d="M454.766 226.181C466.093 219.617 469.975 205.054 463.407 193.721L460.624 195.333C466.303 205.132 462.956 217.726 453.157 223.405C443.359 229.083 430.767 225.726 425.088 215.928L422.306 217.54C428.88 228.87 443.439 232.745 454.766 226.181Z" fill="#F76457"/>
<path d="M449.617 217.298C456.045 213.572 458.245 205.308 454.519 198.88L452.945 199.792C456.171 205.358 454.27 212.498 448.704 215.723C443.139 218.949 435.999 217.048 432.773 211.483L431.199 212.395C434.924 218.823 443.189 221.023 449.617 217.298Z" fill="#F76457"/>
<path d="M461.36 237.56C478.965 227.358 484.992 204.737 474.785 187.126L470.474 189.624C479.299 204.851 474.095 224.421 458.862 233.249C443.635 242.073 424.065 236.87 415.237 221.636L410.926 224.135C421.132 241.746 443.756 247.763 461.36 237.56Z" fill="#F76457"/>
<path d="M397.519 232.953C412.361 257.615 444.41 265.936 469.409 251.448C494.408 236.96 503.115 205.02 489.102 179.877C488.957 179.612 488.822 179.349 488.671 179.088L482.491 182.67C495.154 204.52 487.674 232.599 465.83 245.259C443.98 257.922 415.911 250.445 403.248 228.594L403.215 228.613L397.062 232.179C397.2 232.448 397.361 232.695 397.519 232.953Z" fill="#F76457"/>
<path d="M625.624 127.162C636.951 120.598 640.826 106.039 634.258 94.7055L631.475 96.3183C637.154 106.117 633.807 118.711 624.009 124.39C614.21 130.068 601.618 126.711 595.94 116.913L593.157 118.525C599.738 129.851 614.297 133.727 625.624 127.162Z" fill="#F76457"/>
<path d="M632.219 138.541C649.823 128.338 655.85 105.718 645.644 88.1065L641.333 90.6051C650.157 105.832 644.947 125.405 629.727 134.226C614.5 143.05 594.931 137.847 586.102 122.613L581.791 125.112C591.997 142.723 614.614 148.743 632.219 138.541Z" fill="#F76457"/>
<path d="M568.384 133.93C583.227 158.592 615.275 166.913 640.274 152.425C665.273 137.938 673.98 105.997 659.967 80.8539C659.822 80.5888 659.687 80.3265 659.536 80.0653L653.356 83.6465L653.35 83.6503C666.013 105.501 658.539 133.576 636.695 146.236C614.851 158.895 586.776 151.422 574.113 129.571L574.08 129.59L567.927 133.156C568.065 133.425 568.219 133.676 568.384 133.93Z" fill="#F76457"/>
<path d="M254.909 275.163C275.786 263.064 285.29 238.794 279.702 216.473L273.222 220.229C277.009 238.96 268.752 258.876 251.324 268.977C233.889 279.081 212.507 276.35 198.14 263.742L191.66 267.497C208.242 283.446 234.025 287.266 254.909 275.163Z" fill="#F76457"/>
<path d="M411.123 150.877C417.695 147.068 421.743 140.577 422.726 133.585L419.022 135.732C417.651 140.758 414.381 145.28 409.521 148.097C404.661 150.913 399.112 151.502 394.062 150.197L390.365 152.339C396.907 154.97 404.552 154.685 411.123 150.877Z" fill="#F76457"/>
<path d="M417.722 162.263C430.845 154.657 437.522 140.159 435.856 125.976L431.081 128.743C431.637 140.289 425.897 151.765 415.223 157.951C404.543 164.141 391.738 163.412 381.997 157.189L377.222 159.957C388.7 168.454 404.599 169.868 417.722 162.263Z" fill="#F76457"/>
<path d="M425.767 176.143C446.645 164.044 456.149 139.775 450.561 117.454L444.081 121.209C447.868 139.94 439.611 159.857 422.182 169.957C404.754 180.058 383.365 177.331 368.999 164.722L362.519 168.478C379.107 184.423 404.89 188.243 425.767 176.143Z" fill="#F76457"/>
</g>
</g>
<defs>
<clipPath id="clip0_76_21959">
<rect width="755" height="755" fill="white" transform="translate(1031.8 653.229) rotate(149.906)"/>
</clipPath>
</defs>
</svg>
