<svg width="57" height="57" viewBox="0 0 57 57" fill="none" xmlns="http://www.w3.org/2000/svg">
<path d="M28.499 23.877C27.2726 23.877 26.0965 24.3641 25.2293 25.2313C24.3622 26.0985 23.875 27.2746 23.875 28.501C23.875 29.7273 24.3622 30.9034 25.2293 31.7706C26.0965 32.6378 27.2726 33.125 28.499 33.125C29.7254 33.125 30.9015 32.6378 31.7687 31.7706C32.6358 30.9034 33.123 29.7273 33.123 28.501C33.123 27.2746 32.6358 26.0985 31.7687 25.2313C30.9015 24.3641 29.7254 23.877 28.499 23.877ZM28.499 31.504C27.7023 31.504 26.9382 31.1875 26.3749 30.6241C25.8115 30.0607 25.495 29.2967 25.495 28.5C25.495 27.7032 25.8115 26.9392 26.3749 26.3758C26.9382 25.8124 27.7023 25.496 28.499 25.496C29.2957 25.496 30.0598 25.8124 30.6231 26.3758C31.1865 26.9392 31.503 27.7032 31.503 28.5C31.503 29.2967 31.1865 30.0607 30.6231 30.6241C30.0598 31.1875 29.2957 31.504 28.499 31.504Z" fill="#36844C"/>
<path d="M33.306 24.785C33.9014 24.785 34.384 24.3024 34.384 23.707C34.384 23.1117 33.9014 22.629 33.306 22.629C32.7106 22.629 32.228 23.1117 32.228 23.707C32.228 24.3024 32.7106 24.785 33.306 24.785Z" fill="#36844C"/>
<path d="M37.033 22.611C36.8015 22.0132 36.4477 21.4703 35.9943 21.0171C35.5409 20.5638 34.9979 20.2103 34.4 19.979C33.7003 19.7164 32.9612 19.5743 32.214 19.559C31.251 19.517 30.946 19.505 28.504 19.505C26.062 19.505 25.749 19.505 24.794 19.559C24.0474 19.5736 23.3088 19.7156 22.61 19.979C22.0119 20.21 21.4688 20.5635 21.0153 21.0167C20.5619 21.47 20.2082 22.013 19.977 22.611C19.7143 23.3106 19.5726 24.0498 19.558 24.797C19.515 25.759 19.502 26.064 19.502 28.507C19.502 30.949 19.502 31.26 19.558 32.217C19.573 32.965 19.714 33.703 19.977 34.404C20.2089 35.0018 20.5629 35.5446 21.0164 35.9978C21.47 36.451 22.0131 36.8046 22.611 37.036C23.3084 37.3092 24.0474 37.4614 24.796 37.486C25.759 37.528 26.064 37.541 28.506 37.541C30.948 37.541 31.261 37.541 32.216 37.486C32.9631 37.4708 33.7022 37.3291 34.402 37.067C34.9998 36.8352 35.5426 36.4813 35.996 36.028C36.4493 35.5746 36.8032 35.0318 37.035 34.434C37.298 33.734 37.439 32.996 37.454 32.248C37.497 31.286 37.51 30.981 37.51 28.538C37.51 26.095 37.51 25.785 37.454 24.828C37.4424 24.0703 37.2999 23.3203 37.033 22.611ZM35.815 32.143C35.8085 32.7193 35.7034 33.2902 35.504 33.831C35.3538 34.2199 35.1239 34.573 34.8291 34.8677C34.5342 35.1624 34.181 35.3921 33.792 35.542C33.2572 35.7405 32.6924 35.8456 32.122 35.853C31.172 35.897 30.904 35.908 28.468 35.908C26.03 35.908 25.781 35.908 24.813 35.853C24.2429 35.846 23.6783 35.7408 23.144 35.542C22.7537 35.393 22.399 35.1637 22.1029 34.869C21.8068 34.5742 21.5758 34.2206 21.425 33.831C21.2284 33.2961 21.1233 32.7318 21.114 32.162C21.071 31.212 21.061 30.944 21.061 28.508C21.061 26.071 21.061 25.822 21.114 24.853C21.1205 24.277 21.2257 23.7064 21.425 23.166C21.73 22.377 22.355 21.756 23.144 21.454C23.6786 21.2561 24.243 21.151 24.813 21.143C25.764 21.1 26.031 21.088 28.468 21.088C30.905 21.088 31.155 21.088 32.122 21.143C32.6924 21.1499 33.2574 21.2551 33.792 21.454C34.1809 21.6043 34.5341 21.8342 34.829 22.129C35.1238 22.4239 35.3537 22.7771 35.504 23.166C35.7006 23.701 35.8057 24.2652 35.815 24.835C35.858 25.786 35.869 26.053 35.869 28.49C35.869 30.926 35.869 31.188 35.826 32.144H35.815V32.143Z" fill="#36844C"/>
</svg>
