<svg width="57" height="57" viewBox="0 0 57 57" fill="none" xmlns="http://www.w3.org/2000/svg">
<path d="M21.483 23.697C22.6914 23.697 23.671 22.7174 23.671 21.509C23.671 20.3006 22.6914 19.321 21.483 19.321C20.2746 19.321 19.295 20.3006 19.295 21.509C19.295 22.7174 20.2746 23.697 21.483 23.697Z" fill="#36844C"/>
<path d="M25.737 25.3551V37.4941H29.506V31.4911C29.506 29.9071 29.804 28.3731 31.768 28.3731C33.705 28.3731 33.729 30.1841 33.729 31.5911V37.4951H37.5V30.8381C37.5 27.5681 36.796 25.0551 32.974 25.0551C31.139 25.0551 29.909 26.0621 29.406 27.0151H29.355V25.3551H25.737ZM19.595 25.3551H23.37V37.4941H19.595V25.3551Z" fill="#36844C"/>
</svg>
