<svg width="206" height="52" viewBox="0 0 206 52" fill="none" xmlns="http://www.w3.org/2000/svg">
<path d="M9.07811 12.424C9.31811 12.856 9.47411 13.276 9.54611 13.684C9.61811 14.068 9.65411 14.74 9.65411 15.7C9.65411 16.66 9.25811 19.852 8.46611 25.276C7.67411 30.7 7.27811 34.504 7.27811 36.688C7.27811 38.848 7.44611 40.324 7.78211 41.116C6.29411 40.588 5.23811 39.88 4.61411 38.992C4.01411 38.08 3.71411 37.024 3.71411 35.824C3.71411 34.6 3.96611 32.128 4.47011 28.408C5.35811 22.24 5.80211 17.464 5.80211 14.08C5.80211 13.36 5.75411 12.376 5.65811 11.128C7.48211 11.224 8.62211 11.656 9.07811 12.424ZM36.3931 20.272C36.3931 21.28 36.2011 21.976 35.8171 22.36C35.4331 22.744 34.8691 22.936 34.1251 22.936H31.5331C31.4371 23.56 31.1851 25.048 30.7771 27.4C29.9611 31.864 29.5531 35.236 29.5531 37.516C29.5531 39.796 29.7211 41.308 30.0571 42.052C28.6891 41.548 27.7171 40.792 27.1411 39.784C26.5651 38.752 26.2771 37.504 26.2771 36.04C26.2771 34.576 26.3611 33.196 26.5291 31.9C26.7211 30.58 26.9851 29.044 27.3211 27.292C27.6571 25.54 27.8971 24.136 28.0411 23.08C26.6731 23.272 25.3291 23.656 24.0091 24.232C23.9611 23.848 23.9371 23.5 23.9371 23.188C23.9371 22.036 24.3211 21.268 25.0891 20.884C25.8571 20.476 26.9611 20.272 28.4011 20.272C28.5691 18.496 28.6531 17.176 28.6531 16.312C28.6531 15.424 28.6411 14.716 28.6171 14.188C28.6171 13.66 28.6171 13.264 28.6171 13C29.7211 13.168 30.5731 13.66 31.1731 14.476C31.7731 15.268 32.0731 16.36 32.0731 17.752C32.0731 18.472 32.0131 19.348 31.8931 20.38C33.9811 20.38 35.4571 20.032 36.3211 19.336C36.3691 19.672 36.3931 19.984 36.3931 20.272ZM53.3398 25.924C52.6438 27.124 52.1038 28.36 51.7198 29.632C51.3598 30.88 51.1798 32.08 51.1798 33.232C51.1798 34.384 51.4318 35.368 51.9358 36.184C52.4638 36.976 53.2078 37.372 54.1678 37.372C55.5118 37.372 56.7718 36.64 57.9478 35.176C59.1238 33.688 60.0238 31.9 60.6478 29.812C61.2958 27.7 61.6198 25.756 61.6198 23.98C61.6198 22.18 61.5478 20.704 61.4038 19.552C61.9798 19.504 62.3398 19.48 62.4838 19.48C64.5238 19.48 65.5438 20.524 65.5438 22.612C65.5438 23.068 65.2558 24.928 64.6798 28.192C64.1038 31.432 63.8158 34.036 63.8158 36.004C63.8158 37.948 64.1878 39.676 64.9318 41.188C63.4198 40.876 62.3158 40.216 61.6198 39.208C60.9478 38.176 60.6118 36.7 60.6118 34.78C60.6118 34.444 60.6598 33.796 60.7558 32.836C60.1078 35.116 58.9678 36.952 57.3358 38.344C55.7038 39.736 54.0958 40.432 52.5118 40.432C50.9518 40.432 49.6918 39.844 48.7318 38.668C47.7718 37.468 47.2918 35.824 47.2918 33.736C47.2918 31.624 47.6758 29.572 48.4438 27.58C49.2358 25.564 50.4118 23.824 51.9718 22.36C53.5558 20.896 55.3198 20.164 57.2638 20.164C58.1038 20.164 59.0278 20.332 60.0358 20.668C58.6198 21.028 57.3238 21.688 56.1478 22.648C54.9718 23.608 54.0358 24.7 53.3398 25.924ZM80.5474 37.372C80.5234 36.988 80.5114 36.376 80.5114 35.536C80.5114 34.672 80.9074 31.024 81.6994 24.592C82.5154 18.16 82.9234 13.744 82.9234 11.344C82.9234 8.944 82.7794 7.384 82.4914 6.664C83.8354 7.168 84.7834 7.912 85.3354 8.896C85.8874 9.88 86.1634 11.068 86.1634 12.46C86.1634 13.852 85.8154 17.452 85.1194 23.26C84.4234 29.068 84.0754 33.748 84.0754 37.3C84.0754 38.068 84.1234 39.148 84.2194 40.54C82.8994 40.444 81.9634 40.132 81.4114 39.604C80.9554 39.172 80.6674 38.428 80.5474 37.372Z" fill="#094A1B"/>
<path d="M105.057 40.54C103.689 40.06 102.729 39.328 102.177 38.344C101.649 37.336 101.385 36.124 101.385 34.708C101.385 33.292 101.577 31.264 101.961 28.624C102.345 25.984 102.537 23.932 102.537 22.468C102.537 21.004 102.465 19.876 102.321 19.084C102.753 19.036 103.101 19.012 103.365 19.012C104.445 19.012 105.225 19.252 105.705 19.732C106.185 20.212 106.425 21.004 106.425 22.108C106.425 22.468 106.125 24.364 105.525 27.796C104.949 31.204 104.649 34.024 104.625 36.256C104.625 38.464 104.769 39.892 105.057 40.54ZM105.597 15.448C103.581 15.448 102.573 14.764 102.573 13.396C102.573 12.916 102.753 12.244 103.113 11.38C103.641 11.284 104.097 11.236 104.481 11.236C106.497 11.236 107.505 11.92 107.505 13.288C107.505 13.768 107.325 14.44 106.965 15.304C106.437 15.4 105.981 15.448 105.597 15.448ZM126.596 25.924C125.9 27.124 125.36 28.36 124.976 29.632C124.616 30.88 124.436 32.08 124.436 33.232C124.436 34.384 124.688 35.368 125.192 36.184C125.72 36.976 126.464 37.372 127.424 37.372C128.768 37.372 130.028 36.64 131.204 35.176C132.38 33.688 133.28 31.9 133.904 29.812C134.552 27.7 134.876 25.756 134.876 23.98C134.876 22.18 134.804 20.704 134.66 19.552C135.236 19.504 135.596 19.48 135.74 19.48C137.78 19.48 138.8 20.524 138.8 22.612C138.8 23.068 138.512 24.928 137.936 28.192C137.36 31.432 137.072 34.036 137.072 36.004C137.072 37.948 137.444 39.676 138.188 41.188C136.676 40.876 135.572 40.216 134.876 39.208C134.204 38.176 133.868 36.7 133.868 34.78C133.868 34.444 133.916 33.796 134.012 32.836C133.364 35.116 132.224 36.952 130.592 38.344C128.96 39.736 127.352 40.432 125.768 40.432C124.208 40.432 122.948 39.844 121.988 38.668C121.028 37.468 120.548 35.824 120.548 33.736C120.548 31.624 120.932 29.572 121.7 27.58C122.492 25.564 123.668 23.824 125.228 22.36C126.812 20.896 128.576 20.164 130.52 20.164C131.36 20.164 132.284 20.332 133.292 20.668C131.876 21.028 130.58 21.688 129.404 22.648C128.228 23.608 127.292 24.7 126.596 25.924ZM170.399 24.34C170.399 25.444 170.159 27.4 169.679 30.208C169.223 32.992 168.995 35.02 168.995 36.292C168.995 37.564 169.151 38.488 169.463 39.064C169.775 39.616 170.303 40.096 171.047 40.504C170.735 40.528 170.291 40.54 169.715 40.54C168.083 40.54 166.919 40.24 166.223 39.64C165.551 39.016 165.215 37.912 165.215 36.328C165.215 35.44 165.455 33.652 165.935 30.964C166.415 28.252 166.655 26.26 166.655 24.988C166.655 23.404 166.175 22.612 165.215 22.612C163.679 22.612 162.083 23.968 160.427 26.68C158.795 29.392 157.979 32.656 157.979 36.472C157.979 37.984 158.051 39.16 158.195 40C157.571 40.048 157.199 40.072 157.079 40.072C154.967 40.072 153.911 39.04 153.911 36.976C153.911 36.496 154.163 34.648 154.667 31.432C155.171 28.216 155.423 25.66 155.423 23.764C155.423 21.844 155.219 20.08 154.811 18.472C156.227 19.024 157.211 19.816 157.763 20.848C158.339 21.856 158.627 23.02 158.627 24.34C158.627 25.636 158.483 27.148 158.195 28.876C158.987 26.164 160.223 23.884 161.903 22.036C163.607 20.164 165.191 19.228 166.655 19.228C169.151 19.228 170.399 20.932 170.399 24.34ZM190.702 25.924C190.006 27.124 189.466 28.36 189.082 29.632C188.722 30.88 188.542 32.08 188.542 33.232C188.542 34.384 188.794 35.368 189.298 36.184C189.826 36.976 190.57 37.372 191.53 37.372C192.874 37.372 194.134 36.64 195.31 35.176C196.486 33.688 197.386 31.9 198.01 29.812C198.658 27.7 198.982 25.756 198.982 23.98C198.982 22.18 198.91 20.704 198.766 19.552C199.342 19.504 199.702 19.48 199.846 19.48C201.886 19.48 202.906 20.524 202.906 22.612C202.906 23.068 202.618 24.928 202.042 28.192C201.466 31.432 201.178 34.036 201.178 36.004C201.178 37.948 201.55 39.676 202.294 41.188C200.782 40.876 199.678 40.216 198.982 39.208C198.31 38.176 197.974 36.7 197.974 34.78C197.974 34.444 198.022 33.796 198.118 32.836C197.47 35.116 196.33 36.952 194.698 38.344C193.066 39.736 191.458 40.432 189.874 40.432C188.314 40.432 187.054 39.844 186.094 38.668C185.134 37.468 184.654 35.824 184.654 33.736C184.654 31.624 185.038 29.572 185.806 27.58C186.598 25.564 187.774 23.824 189.334 22.36C190.918 20.896 192.682 20.164 194.626 20.164C195.466 20.164 196.39 20.332 197.398 20.668C195.982 21.028 194.686 21.688 193.51 22.648C192.334 23.608 191.398 24.7 190.702 25.924Z" fill="#D91111"/>
</svg>
